<?xml version="1.0" encoding="utf-8"?>
<!-- Generator: Adobe Illustrator 27.1.1, SVG Export Plug-In . SVG Version: 6.00 Build 0)  -->
<svg version="1.1" id="Layer_1" xmlns="http://www.w3.org/2000/svg" xmlns:xlink="http://www.w3.org/1999/xlink" x="0px" y="0px"
	 viewBox="0 0 750 500" style="enable-background:new 0 0 750 500;" xml:space="preserve">
<style type="text/css">
	.st0{fill:none;}
	.st1{fill:#71BF9D;}
	.st2{fill:none;stroke:#E57E55;stroke-width:0.9971;stroke-linecap:round;stroke-linejoin:round;stroke-miterlimit:10;}
	.st3{fill:none;stroke:#E57E55;stroke-width:0.7983;stroke-linecap:round;stroke-linejoin:round;stroke-miterlimit:10;}
	.st4{fill:#FFFFFF;}
	.st5{fill:#FFD25A;}
	.st6{fill:#FFBE57;}
	.st7{fill:none;stroke:#FFFFFF;stroke-width:0.9735;stroke-miterlimit:10;}
	.st8{fill:#764582;}
	.st9{fill:#9D68AA;}
	.st10{fill:#FFFFFF;stroke:#764582;stroke-width:0.9736;stroke-miterlimit:10;}
	.st11{fill-rule:evenodd;clip-rule:evenodd;fill:#764582;}
	.st12{fill-rule:evenodd;clip-rule:evenodd;fill:#FFFFFF;stroke:#764582;stroke-width:1.0244;stroke-miterlimit:10;}
	.st13{fill:none;stroke:#764582;stroke-width:1.265;stroke-miterlimit:10;}
	.st14{fill:none;stroke:#764582;stroke-width:1.0244;stroke-linecap:round;stroke-linejoin:round;stroke-miterlimit:10;}
	.st15{opacity:0.7;fill:#A1ABAD;enable-background:new    ;}
	.st16{fill:#DD4026;}
	.st17{fill:#E2E2E2;}
	.st18{fill:#FD6141;}
	.st19{fill:none;stroke:#EFE9DA;stroke-width:1.1573;stroke-linecap:round;stroke-miterlimit:10;}
	.st20{fill:none;stroke:#EFE9DA;stroke-width:1.1573;stroke-miterlimit:10;}
	.st21{fill:#3C8460;}
	.st22{opacity:0.2;fill:#764582;enable-background:new    ;}
	.st23{fill:#E4BCE8;}
	.st24{fill:none;stroke:#FFFFFF;stroke-width:0.9734;stroke-miterlimit:10;}
	.st25{fill:#FDEEFF;}
	.st26{fill:#A1ABAD;}
	.st27{fill:#FFCC5A;stroke:#764582;stroke-width:0.9736;stroke-miterlimit:10;}
	.st28{fill-rule:evenodd;clip-rule:evenodd;fill:#9D68AA;}
	.st29{fill:#FFB072;}
	.st30{fill:#3E2344;}
	.st31{fill:#FFDCAE;}
	.st32{fill:#FFFFFF;stroke:#FD6141;stroke-width:1.8544;stroke-linecap:round;stroke-linejoin:round;stroke-miterlimit:10;}
	.st33{fill:#FF8976;}
	.st34{fill:#F99441;}
	.st35{fill:#ED0C37;}
	.st36{clip-path:url(#SVGID_00000102538016742632505430000013355260411433007007_);fill:#FFAEC1;}
	.st37{clip-path:url(#SVGID_00000156577479465947315140000008958424613486419594_);fill:#FFB072;}
	.st38{fill:#552F5E;}
	.st39{fill:#F29353;}
	.st40{clip-path:url(#SVGID_00000081649414333538977100000000336607269517889427_);fill:#FFAEC1;}
	.st41{clip-path:url(#SVGID_00000134223158274639552560000013791986720445864628_);fill:#FFB072;}
	.st42{fill:none;stroke:#FFFFFF;stroke-width:0.4986;stroke-miterlimit:10;}
	.st43{fill-rule:evenodd;clip-rule:evenodd;fill:#FFB072;}
	.st44{fill:#E57E55;}
	.st45{opacity:0.5;fill:#E57E55;enable-background:new    ;}
	.st46{opacity:0.7;fill-rule:evenodd;clip-rule:evenodd;fill:#A1ABAD;enable-background:new    ;}
	.st47{fill:none;stroke:#FFFFFF;stroke-width:0.4986;stroke-linecap:round;stroke-linejoin:round;stroke-miterlimit:10;}
	.st48{fill-rule:evenodd;clip-rule:evenodd;fill:#FD6141;}
	.st49{opacity:0.5;}
	.st50{fill-rule:evenodd;clip-rule:evenodd;fill:#DD4026;}
	.st51{clip-path:url(#SVGID_00000183952571273941987290000012920532958022097588_);fill:#DD4026;}
	.st52{fill:#F7B614;}
	.st53{opacity:0.5;fill:#FFBE57;enable-background:new    ;}
	.st54{clip-path:url(#SVGID_00000066504463025294538050000005478822255528758682_);fill:#DD4026;}
	.st55{fill:none;stroke:#FFFFFF;stroke-width:0.4986;stroke-linecap:round;stroke-miterlimit:10;}
	.st56{opacity:0.3;fill:#764582;enable-background:new    ;}
</style>
<g id="BACKGROUND">
	<rect class="st0" width="750" height="500"/>
</g>
<g id="OBJECTS">
	<g>
		<g>
			<path class="st1" d="M596.2,335.3c-1.8-9.5-19.5-11.1-19.5-11.1s10.3-17.2,3-25s-24.2,10.5-24.2,10.5s-5.6-11.6-13.8,0
				c0,0-13.8-10.5-25.7-5.1c-8.5,3.9-7.3,14.1-5.8,19.6H276c-0.2-0.4-0.4-0.8-0.8-1.2c-7.9-9.5-30.8-4.6-30.8-4.6s9.6-23.7-6.2-30.8
				c-15.8-7.2-34.1,6.8-34.1,6.8c-11-15.4-18.3,0-18.3,0s-22.3-24.3-32-14s4,33.2,4,33.2s-23.4,2.1-25.9,14.7
				c-2.4,12.6,40.6,25.7,40.6,25.7l393.3,0.8C565.6,354.7,598.1,344.8,596.2,335.3z"/>
			<g>
				<path class="st2" d="M194,350.2c-7.1-20-17.8-38.8-31.5-55"/>
				<path class="st2" d="M194,351c0.5-15.8,2.2-31.6,4.9-47.2"/>
				<path class="st2" d="M189.8,340c-10.2-5.1-21.1-8.6-32.4-10.5"/>
				<path class="st2" d="M179.3,318.5c2.1-4.8,3.5-9.8,4.2-15"/>
			</g>
			<g>
				<path class="st3" d="M547.9,352c5.7-16,14.3-31,25.2-44"/>
				<path class="st3" d="M547.9,352.6c-0.4-12.7-1.8-25.3-3.9-37.8"/>
				<path class="st3" d="M551.3,343.8c8.2-4,16.9-6.9,25.9-8.4"/>
				<path class="st3" d="M559.6,326.6c-1.6-3.8-2.8-7.9-3.3-12"/>
			</g>
			<g>
				<g>
					<g>
						<path class="st4" d="M174,285.9c0.2,0,0.3,0.1,0.5,0.2c0.1,0.1,0.3,0.2,0.4,0.4c0.1,0.2,0,0.5-0.2,0.6c-0.1,0-0.2,0.1-0.3,0
							c-0.2,0-0.3-0.1-0.5-0.2c-0.1-0.1-0.3-0.2-0.4-0.4c-0.1-0.2,0-0.5,0.2-0.6C173.8,285.9,173.9,285.9,174,285.9z"/>
					</g>
					<g>
						<path class="st4" d="M175.6,287.2c0.2,0,0.3,0.2,0.5,0.3c0.1,0.1,0.3,0.2,0.3,0.4c0.1,0.2,0,0.5-0.2,0.6c-0.1,0-0.2,0-0.3,0
							c-0.2,0-0.3-0.2-0.5-0.3c-0.1-0.1-0.3-0.2-0.3-0.4c-0.1-0.2,0-0.5,0.2-0.6C175.4,287.2,175.5,287.2,175.6,287.2z"/>
					</g>
					<g>
						<path class="st4" d="M177.1,288.6c0.2,0,0.3,0.2,0.5,0.3c0.1,0.1,0.3,0.3,0.3,0.4c0.1,0.2,0,0.5-0.2,0.6c-0.1,0-0.2,0-0.3,0
							c-0.2,0-0.3-0.2-0.5-0.3c-0.1-0.1-0.3-0.3-0.3-0.4c-0.1-0.2,0-0.5,0.2-0.6S177.1,288.5,177.1,288.6z"/>
					</g>
					<g>
						<path class="st4" d="M179.9,291c0.2,0.1,0.3,0.2,0.5,0.3c0.1,0.1,0.2,0.3,0.3,0.5s0,0.5-0.3,0.6c-0.1,0-0.2,0-0.3,0
							c-0.2-0.1-0.3-0.2-0.5-0.3c-0.1-0.1-0.2-0.3-0.3-0.4c-0.1-0.2,0-0.5,0.3-0.6C179.7,291,179.8,291,179.9,291z"/>
					</g>
					<g>
						<path class="st4" d="M181.7,292.8c0.1,0,0.2,0.1,0.3,0.2s0.1,0.2,0.2,0.3c0,0.3-0.2,0.5-0.5,0.5h-0.1c-0.1,0-0.2-0.1-0.3-0.2
							s-0.1-0.2-0.2-0.3C181.1,293.1,181.3,292.8,181.7,292.8C181.6,292.8,181.7,292.8,181.7,292.8z"/>
					</g>
					<g>
						<path class="st4" d="M183.2,294.4c0.1,0,0.2,0.1,0.3,0.2s0.1,0.2,0.1,0.3c0,0.3-0.2,0.5-0.5,0.5H183c-0.1,0-0.2-0.1-0.3-0.2
							s-0.1-0.2-0.1-0.3c0-0.3,0.2-0.5,0.5-0.5C183.2,294.4,183.2,294.4,183.2,294.4z"/>
					</g>
				</g>
				<g>
					<g>
						<path class="st4" d="M156.1,280.6c1.3-0.9,3-1.2,4.5-1.2c1.6,0,3.1,0.5,4.5,1c1.4,0.6,2.8,1.3,4.1,2.1
							c1.3,0.8,2.5,1.7,3.7,2.6c0.2,0.1,0.2,0.4,0.1,0.5c-0.1,0.2-0.4,0.2-0.5,0.1c-1.2-0.9-2.5-1.7-3.7-2.5c-1.3-0.8-2.6-1.5-3.9-2
							c-1.4-0.6-2.8-1-4.2-1s-2.9,0.2-4.1,0.9c-0.2,0.1-0.4,0-0.5-0.2C155.9,280.9,155.9,280.7,156.1,280.6z"/>
					</g>
					<g>
						<path class="st4" d="M155.6,281.8c0,0.2-0.2,0.2-0.2,0.4c-0.1,0.1-0.2,0.2-0.4,0.2c-0.2,0.1-0.5-0.1-0.6-0.3
							c0-0.1,0-0.2,0-0.2c0-0.2,0.1-0.3,0.2-0.4c0.1-0.1,0.3-0.2,0.4-0.2c0.3,0,0.5,0.1,0.5,0.4
							C155.7,281.6,155.7,281.7,155.6,281.8z"/>
					</g>
					<g>
						<path class="st4" d="M154.5,283c0,0.2-0.1,0.3-0.1,0.4c-0.1,0.1-0.2,0.2-0.3,0.3c-0.2,0.1-0.5,0.1-0.6-0.1
							c0-0.1-0.1-0.1-0.1-0.2c0-0.2,0.1-0.3,0.1-0.5c0.1-0.1,0.2-0.3,0.4-0.3c0.2-0.1,0.5,0,0.6,0.2
							C154.5,282.8,154.5,282.9,154.5,283z"/>
					</g>
					<g>
						<path class="st4" d="M153.7,284.4c-0.1,0.3-0.1,0.6-0.2,0.9l-0.2,0.9c-0.1,0.6-0.3,1.2-0.4,1.7c-0.1,0.2-0.3,0.3-0.5,0.3
							s-0.3-0.2-0.3-0.4c0-0.6,0.1-1.3,0.2-1.9l0.3-0.9c0.1-0.3,0.3-0.6,0.4-0.9c0.1-0.2,0.4-0.2,0.5-0.1
							C153.7,284.1,153.8,284.3,153.7,284.4z"/>
					</g>
					<g>
						<path class="st4" d="M152.7,289.4c0.1,0.1,0.1,0.2,0.1,0.3c0,0.1,0,0.2-0.1,0.3c-0.2,0.2-0.6,0.2-0.8,0l0,0
							c-0.1-0.1-0.1-0.2-0.1-0.3c0-0.1,0-0.2,0.1-0.3C152.2,289.2,152.5,289.2,152.7,289.4L152.7,289.4z"/>
					</g>
					<g>
						<path class="st4" d="M152.7,291.2c0.1,0.1,0.1,0.2,0.1,0.3c0,0.1,0,0.2-0.1,0.3c-0.2,0.2-0.5,0.2-0.8,0l0,0
							c-0.1-0.1-0.1-0.2-0.1-0.3c0-0.1,0-0.2,0.1-0.3C152.2,291,152.5,291,152.7,291.2L152.7,291.2z"/>
					</g>
				</g>
			</g>
			<g>
				<g>
					<g>
						<path class="st4" d="M579.2,310.8c0,0.2,0,0.4,0,0.6c-0.1,0.2-0.1,0.4-0.2,0.5c-0.2,0.2-0.4,0.2-0.6,0.1
							c-0.1-0.1-0.1-0.2-0.1-0.2c0-0.2,0-0.4,0-0.6c0.1-0.2,0.1-0.4,0.2-0.5c0.2-0.2,0.4-0.2,0.6-0.1
							C579.1,310.6,579.2,310.7,579.2,310.8z"/>
					</g>
					<g>
						<path class="st4" d="M578.7,312.9c0,0.2,0,0.4,0,0.6c-0.1,0.2-0.1,0.4-0.3,0.5c-0.2,0.2-0.4,0.2-0.6,0
							c-0.1-0.1-0.1-0.2-0.1-0.2c0-0.2,0-0.4,0-0.6c0.1-0.2,0.1-0.4,0.3-0.5c0.2-0.2,0.4-0.2,0.6-0.1
							C578.6,312.7,578.6,312.8,578.7,312.9z"/>
					</g>
					<g>
						<path class="st4" d="M578.1,315c0,0.2,0,0.4-0.1,0.6s-0.1,0.4-0.3,0.5c-0.2,0.2-0.4,0.2-0.6,0c-0.1-0.1-0.1-0.2-0.1-0.3
							c0-0.2,0-0.4,0.1-0.6s0.1-0.4,0.3-0.5c0.2-0.2,0.4-0.2,0.6,0C578,314.9,578,314.9,578.1,315z"/>
					</g>
					<g>
						<path class="st4" d="M576.8,318.8c0,0.2,0,0.4-0.1,0.6s-0.2,0.4-0.3,0.5c-0.2,0.2-0.5,0.2-0.6,0c-0.1-0.1-0.1-0.2-0.1-0.3
							c0-0.2,0-0.4,0.1-0.6s0.1-0.4,0.3-0.5c0.2-0.2,0.5-0.2,0.6,0C576.8,318.6,576.8,318.7,576.8,318.8z"/>
					</g>
					<g>
						<path class="st4" d="M575.8,321.3c0,0.1,0,0.3,0,0.4c-0.1,0.1-0.1,0.2-0.2,0.3c-0.2,0.1-0.6,0.1-0.7-0.2v-0.1
							c0-0.1,0-0.2,0-0.4c0.1-0.1,0.1-0.2,0.2-0.3C575.4,320.9,575.7,321,575.8,321.3L575.8,321.3z"/>
					</g>
					<g>
						<path class="st4" d="M574.9,323.5c0,0.1,0,0.3,0,0.4c-0.1,0.1-0.1,0.2-0.2,0.3c-0.3,0.1-0.6,0-0.7-0.2v-0.1c0-0.1,0-0.2,0-0.4
							c0.1-0.1,0.1-0.2,0.2-0.3C574.5,323.1,574.8,323.2,574.9,323.5L574.9,323.5z"/>
					</g>
				</g>
				<g>
					<g>
						<path class="st4" d="M568.1,301.6c1.4-0.8,2.9-1.6,4.5-2s3.5-0.6,5,0.4c0.8,0.5,1.4,1.3,1.7,2.1c0.3,0.8,0.4,1.7,0.5,2.5
							c0.1,1.7-0.1,3.3-0.4,4.9c0,0.2-0.3,0.4-0.5,0.3c-0.2,0-0.3-0.2-0.3-0.5c0.2-1.6,0.4-3.2,0.3-4.7c-0.1-1.5-0.6-3.1-1.8-3.8
							c-1.2-0.7-2.8-0.7-4.3-0.3c-1.5,0.4-2.9,1.1-4.3,1.8c-0.2,0.1-0.4,0-0.5-0.1C567.8,302,567.9,301.7,568.1,301.6z"/>
					</g>
					<g>
						<path class="st4" d="M567.5,302.8c-0.1,0.2-0.2,0.3-0.3,0.3c-0.1,0.1-0.3,0.2-0.5,0.2c-0.3,0-0.5-0.2-0.5-0.4
							c0-0.1,0-0.2,0.1-0.2c0.1-0.2,0.2-0.3,0.4-0.4c0.1-0.1,0.3-0.2,0.5-0.2c0.3,0,0.5,0.2,0.5,0.4
							C567.5,302.7,567.5,302.7,567.5,302.8z"/>
					</g>
					<g>
						<path class="st4" d="M565.9,303.8c-0.1,0.2-0.2,0.3-0.3,0.4s-0.3,0.2-0.5,0.2c-0.3,0-0.5-0.1-0.5-0.4c0-0.1,0-0.2,0-0.2
							c0.1-0.2,0.2-0.3,0.3-0.4s0.3-0.2,0.5-0.2c0.3,0,0.5,0.2,0.5,0.4C566,303.7,566,303.7,565.9,303.8z"/>
					</g>
					<g>
						<path class="st4" d="M564.4,304.9c-0.5,0.5-1,0.9-1.5,1.3s-1,0.8-1.6,1.2c-0.2,0.1-0.4,0.1-0.6-0.1c-0.1-0.1-0.1-0.3,0-0.5
							c0.4-0.5,0.9-0.9,1.5-1.4c0.5-0.4,1-0.8,1.6-1.1c0.2-0.1,0.4,0,0.5,0.1C564.6,304.6,564.6,304.8,564.4,304.9z"/>
					</g>
					<g>
						<path class="st4" d="M560.1,308.5c0,0.1-0.1,0.2-0.1,0.3c-0.1,0.1-0.2,0.1-0.3,0.1c-0.3,0-0.5-0.2-0.5-0.6l0,0
							c0-0.1,0.1-0.2,0.1-0.3c0.1-0.1,0.2-0.1,0.3-0.1C559.9,307.9,560.2,308.1,560.1,308.5L560.1,308.5z"/>
					</g>
					<g>
						<path class="st4" d="M558.7,309.8c0,0.1-0.1,0.2-0.1,0.3c-0.1,0.1-0.2,0.1-0.3,0.1c-0.3,0-0.6-0.2-0.5-0.5l0,0
							c0-0.1,0.1-0.2,0.1-0.3c0.1-0.1,0.2-0.1,0.3-0.1C558.5,309.2,558.7,309.5,558.7,309.8L558.7,309.8z"/>
					</g>
				</g>
			</g>
		</g>
		<g>
			<path class="st5" d="M369,249.7c-59.9-0.9-220.1,48.6-239.6,0c-16.1-40.1,44.1-37,47.6-70.2s-12.2-47.3,12.8-62.7
				s65.7,6,92.6-15.4s40.9-36.9,101.5-44.2s105.3,60.8,131.3,67.6c25.9,6.8,63-10.4,81.2,10.4c18.2,20.9-40.6,67.1-28,86.4
				s43.5,29.7,31.5,56.8S427.3,250.6,369,249.7z"/>
			<g>
				<g>
					<g>
						<path class="st4" d="M130,231.1c0-0.3,0.1-0.5,0.2-0.8c0.1-0.2,0.2-0.5,0.4-0.7s0.5-0.2,0.6,0c0.1,0.1,0.1,0.2,0.1,0.3
							c0,0.3-0.1,0.5-0.2,0.7c-0.1,0.2-0.2,0.5-0.3,0.7c-0.2,0.2-0.5,0.3-0.6,0.1C130,231.4,130,231.3,130,231.1z"/>
					</g>
					<g>
						<path class="st4" d="M131.1,228.5c0-0.3,0.1-0.5,0.3-0.7c0.1-0.2,0.2-0.4,0.5-0.6c0.2-0.2,0.5-0.2,0.6,0.1
							c0,0.1,0.1,0.2,0,0.3c-0.1,0.3-0.1,0.5-0.3,0.7c-0.1,0.2-0.3,0.4-0.4,0.6c-0.2,0.2-0.5,0.2-0.6,0
							C131.1,228.7,131,228.6,131.1,228.5z"/>
					</g>
					<g>
						<path class="st4" d="M132.5,225.9c0.1-0.3,0.2-0.5,0.3-0.7c0.2-0.2,0.3-0.4,0.5-0.6c0.3-0.2,0.5-0.1,0.6,0.1
							c0,0.1,0,0.2,0,0.3c-0.1,0.3-0.2,0.5-0.3,0.7s-0.3,0.4-0.5,0.6c-0.2,0.2-0.5,0.1-0.6-0.1C132.5,226.2,132.5,226.1,132.5,225.9
							z"/>
					</g>
					<g>
						<path class="st4" d="M135.7,221.9c0.1-0.2,0.3-0.4,0.5-0.6c0.2-0.2,0.4-0.3,0.6-0.5c0.3-0.1,0.6,0,0.6,0.2
							c0,0.1,0,0.2-0.1,0.3c-0.1,0.2-0.3,0.4-0.4,0.6c-0.2,0.2-0.4,0.3-0.6,0.5c-0.3,0.1-0.5,0.1-0.6-0.2
							C135.6,222.1,135.6,222,135.7,221.9z"/>
					</g>
					<g>
						<path class="st4" d="M138.3,219.4c0.1-0.2,0.2-0.3,0.3-0.4c0.1-0.1,0.2-0.2,0.4-0.2c0.3,0,0.6,0.2,0.5,0.5v0.1
							c-0.1,0.2-0.2,0.3-0.3,0.4c-0.1,0.1-0.2,0.2-0.4,0.2c-0.3,0.1-0.6-0.2-0.5-0.5V219.4z"/>
					</g>
					<g>
						<path class="st4" d="M140.8,217.6c0.1-0.2,0.2-0.3,0.3-0.3c0.1-0.1,0.3-0.2,0.4-0.2c0.4,0,0.5,0.3,0.5,0.6v0.1
							c-0.1,0.2-0.2,0.2-0.3,0.3s-0.3,0.1-0.4,0.2c-0.3,0-0.6-0.2-0.5-0.5C140.7,217.6,140.8,217.6,140.8,217.6z"/>
					</g>
				</g>
				<g>
					<g>
						<path class="st4" d="M136.5,256.5c-0.7-0.8-1.3-1.7-2-2.5c-0.6-0.9-1.2-1.8-1.7-2.7c-0.5-1-1-1.9-1.4-2.9l-1.2-3
							c-0.7-2-1.1-4.1-1.3-6.3c-0.1-2.1,0.1-4.3,0.6-6.4c0.1-0.3,0.3-0.5,0.5-0.4s0.3,0.3,0.2,0.6c-0.5,2-0.6,4.1-0.5,6.1
							s0.6,4.1,1.3,6l1.1,2.9c0.4,0.9,0.9,1.9,1.4,2.8c0.5,0.9,1.1,1.8,1.6,2.7c0.6,0.8,1.2,1.7,1.9,2.5c0.2,0.2,0.2,0.5,0,0.6
							C136.9,256.8,136.7,256.7,136.5,256.5z"/>
					</g>
					<g>
						<path class="st4" d="M138,257.1c0.2,0.1,0.3,0.2,0.5,0.4c0.1,0.1,0.3,0.3,0.4,0.5c0.1,0.3,0,0.6-0.3,0.6c-0.1,0-0.2,0-0.3,0
							c-0.2-0.1-0.4-0.2-0.6-0.4c-0.1-0.2-0.3-0.3-0.4-0.5c-0.1-0.3,0-0.6,0.3-0.6C137.8,257.1,137.9,257.1,138,257.1z"/>
					</g>
					<g>
						<path class="st4" d="M139.7,258.7c0.2,0.1,0.4,0.2,0.5,0.3c0.2,0.1,0.3,0.3,0.4,0.5c0.1,0.3,0.1,0.6-0.2,0.6
							c-0.1,0-0.2,0-0.3,0c-0.2-0.1-0.4-0.2-0.6-0.3c-0.2-0.1-0.3-0.3-0.4-0.5c-0.1-0.3,0-0.6,0.2-0.6
							C139.5,258.7,139.6,258.7,139.7,258.7z"/>
					</g>
					<g>
						<path class="st4" d="M141.5,260.2c0.7,0.4,1.5,0.8,2.2,1.3c0.7,0.4,1.5,0.8,2.2,1.2c0.2,0.1,0.4,0.4,0.2,0.6
							c-0.1,0.1-0.3,0.2-0.5,0.1c-0.8-0.3-1.6-0.7-2.4-1.1c-0.7-0.4-1.5-0.9-2.1-1.5c-0.2-0.2-0.3-0.5-0.1-0.6
							C141.1,260.1,141.4,260.1,141.5,260.2z"/>
					</g>
					<g>
						<path class="st4" d="M147.9,263.5c0.1,0,0.3,0,0.4,0c0.1,0,0.2,0.1,0.3,0.2c0.2,0.3,0.1,0.6-0.2,0.7l0,0c-0.1,0-0.3,0-0.4,0
							c-0.1-0.1-0.2-0.1-0.3-0.2C147.5,264,147.6,263.6,147.9,263.5L147.9,263.5z"/>
					</g>
					<g>
						<path class="st4" d="M150.4,264.1c0.1-0.1,0.3,0,0.4,0c0.1,0,0.2,0.1,0.3,0.2c0.2,0.2,0.2,0.6-0.1,0.8l0,0
							c-0.1,0.1-0.3,0.1-0.4,0c-0.1,0-0.3-0.1-0.4-0.2C150,264.6,150,264.3,150.4,264.1L150.4,264.1z"/>
					</g>
				</g>
			</g>
			<path class="st6" d="M371.1,88.3c-28.1,4.6-49.9,17.3-65.5,38.3c-14.5,19.2-11.4,43.8,1,62.9c11.4,18.2,33.2,24.6,54,29.2
				c58.2,13.7,111.2,31,166.2,48.3c23.9,7.3,52,18.2,72.7,1.8l0,0c2-1.6,2.9-4.1,2.4-6.4c-3.3-16.1-24-25.8-33.8-40.7
				c-12.6-19.3,46.2-65.5,28-86.4s-55.3-3.7-81.2-10.4c-3.1-0.8-6.4-2.5-10-4.8C458.8,109.8,422.2,80.4,371.1,88.3z"/>
			<path class="st7" d="M577.4,281.4c-24.5,0-66.5-9.4-107.2-18.5c-40-8.9-77.8-17.4-101.1-17.8c-0.6,0-1.2,0-1.8,0
				c-19.2,0-47.4,4.6-77.3,9.5c-34.5,5.6-73.6,12-103.9,12c-29.9,0-46.8-6-51.8-18.4c-7.7-19.1,3.6-25.9,19.3-35.3
				c12.6-7.6,26.8-16.1,28.6-32.9c1.3-11.9,0.1-21.5-0.8-29.2c-1.7-14.4-2.5-21.6,11.4-30.2c6-3.7,13.4-5.3,24.9-5.3
				c4.4,0,8.8,0.2,13.5,0.4c4.8,0.2,9.7,0.5,14.6,0.5c12,0,27.3-1.3,40-11.4c2.5-2,4.8-3.9,7.1-5.7c22.2-17.9,38.2-30.9,91.6-37.4
				c2.8-0.3,5.6-0.5,8.5-0.5c33.9,0,62.7,24.6,85.9,44.3c13.8,11.8,24.7,21.1,34.7,23.7c4.8,1.3,10.3,1.9,16.9,1.9
				c6.1,0,12.4-0.5,18.4-1s11.8-1,17.2-1c12.8,0,20.5,2.7,26,9c7.5,8.6-4,26.2-14.2,41.7c-11.1,16.9-21.6,32.9-14.2,44.3
				c4.3,6.6,10.3,12,16.2,17.3c12.3,11.1,22,19.8,15,35.6C593.7,279.8,587.4,281.4,577.4,281.4z"/>
		</g>
		<g>
			<path class="st8" d="M539,330.8H226.2c-2.1,0-3.9-1.7-3.9-3.9V157.7c0-2.1,1.7-3.9,3.9-3.9H539c2.1,0,3.9,1.7,3.9,3.9V327
				C542.8,329.1,541.1,330.8,539,330.8z"/>
			<path class="st9" d="M533.4,324.2H220.6c-2.1,0-3.9-1.7-3.9-3.9V151.1c0-2.1,1.7-3.9,3.9-3.9h312.8c2.1,0,3.9,1.7,3.9,3.9v169.3
				C537.2,322.4,535.5,324.2,533.4,324.2z"/>
			<g>
				<path class="st10" d="M529.5,317.5H213.3c-1.2,0-2.1-1-2.1-2.1V142.6c0-1.2,1-2.1,2.1-2.1h316.2c1.2,0,2.1,1,2.1,2.1v172.7
					C531.6,316.5,530.7,317.5,529.5,317.5z"/>
				<path class="st11" d="M229,155.7h20.5v-1.2H229V155.7z M224.2,156.3h2.4v-2.4h-2.4V156.3z M229,162.3h20.5v-1.2H229V162.3z
					 M224.2,162.9h2.4v-2.4h-2.4V162.9z M229,169h20.5v-1.2H229V169z M224.2,169.6h2.4v-2.4h-2.4V169.6z"/>
				<path class="st12" d="M300.1,268.5h-60.8c-8.3,0-15.1-6.8-15.1-15.1v-58c0-8.3,6.8-15.1,15.1-15.1h60.8
					c8.3,0,15.1,6.8,15.1,15.1v58C315.2,261.7,308.4,268.5,300.1,268.5z"/>
				<path class="st12" d="M402.3,268.5h-60.8c-8.3,0-15.1-6.8-15.1-15.1v-58c0-8.3,6.8-15.1,15.1-15.1h60.8
					c8.3,0,15.1,6.8,15.1,15.1v58C417.4,261.7,410.7,268.5,402.3,268.5z"/>
				<path class="st12" d="M504.6,268.5h-60.8c-8.3,0-15.1-6.8-15.1-15.1v-58c0-8.3,6.8-15.1,15.1-15.1h60.8
					c8.3,0,15.1,6.8,15.1,15.1v58C519.7,261.7,512.9,268.5,504.6,268.5z"/>
				<g>
					<g>
						<g>
							<path class="st8" d="M497.4,162.9l-1.5-10.2c0-0.3-0.3-0.5-0.6-0.5h-2.7v-1.3h2.7c0.9,0,1.7,0.7,1.8,1.6l0.2,1.1l17.3,0.1
								l-1.8,8L497.4,162.9z M497.5,154.9l1,6.6l13.3-0.9l1.2-5.6L497.5,154.9z"/>
						</g>
						<g>
							<path class="st8" d="M513,165.3l-14.9-0.1c-0.3,0-0.6-0.1-0.8-0.4s-0.3-0.6-0.2-0.9l0.3-1.8l1.2,0.2l-0.3,1.6L513,164V165.3z
								"/>
						</g>
						<path class="st13" d="M501.9,167.8c0,0.9-0.8,1.7-1.7,1.7c-0.9,0-1.7-0.8-1.7-1.7s0.8-1.7,1.7-1.7
							C501.2,166.1,501.9,166.9,501.9,167.8z"/>
						<path class="st13" d="M510.9,167.9c0,0.9-0.8,1.7-1.7,1.7c-0.9,0-1.7-0.8-1.7-1.7s0.8-1.7,1.7-1.7
							C510.1,166.1,510.9,166.9,510.9,167.9z"/>
					</g>
				</g>
				<line class="st14" x1="326" y1="274.6" x2="417.4" y2="274.6"/>
			</g>
			<g>
				<path class="st15" d="M407.3,236.2c0,1.2-14.9,2.3-33.4,2.3s-33.4-1-33.4-2.3s14.9-2.3,33.4-2.3S407.3,235,407.3,236.2z"/>
				<g>
					<g>
						<path class="st16" d="M347.4,212.6c0,0,0.7-1.7,6.5,0.5c3.2,1.2,7.3,4.1,15.3,0.6c0,0,2.4,8.1-7.8,7.4
							C351.2,220.5,347.4,212.6,347.4,212.6z"/>
						<path class="st17" d="M404.3,225.7l2.4,0.6c1.3,0.7,1.3,4.3,0.2,5.4c0,0-9.6,5.6-37.6,6.1c-16.1-0.3-26.9-3.1-27.4-4.2
							c-0.5-1.1-0.5-3.5-0.4-5.3l3-3.5L404.3,225.7z"/>
						<path class="st18" d="M347.4,212.6c0,0-3.2,3-3.5,5.5c-0.5,3.6-1.1,5.4-0.8,9c0,0,9.1,3.5,24.2,3.7c7.5,0.1,18.2-0.4,26.1-1.8
							c6.7-1.2,13.3-2.8,13.3-2.8c-1.9-6.8-7.8-4.2-16.1-6.9c-5.7-1.8-19.1-12.9-19.1-12.9s-3.1,2.3-3.3,3.5
							c-0.1,0.8,1.4,2.7,1.4,2.7s-0.4,6.4-6.7,6.8C356.6,220,347.4,212.6,347.4,212.6z"/>
						<path class="st0" d="M406.7,226.3c0,0-5,3.4-12.4,4.8c-7.5,1.5-19.8,1.9-27.4,1.6c-8.4-0.3-25.5-4.4-25.5-4.4"/>
						<path class="st19" d="M369.6,212.8c0,0,3.2,0,4.4,0.4c2.7,0.9,10.5,7.2,16.3,7.9"/>
						<path class="st17" d="M379.2,212.5l-2.6,4.2c-0.4,0.5-1.9-0.6-1.6-1.1l2.4-4.4C378,210.5,379.7,211.8,379.2,212.5z"/>
						<path class="st17" d="M383,214.7l-2.7,4.5c-0.3,0.7-2.1,0-1.8-0.8l2.7-5C381.8,212.7,383.5,214.1,383,214.7z"/>
						<path class="st17" d="M386.8,217l-2.8,4.5c-0.3,0.6-2-0.2-1.7-0.8l2.7-5C385.6,215,387.3,216.3,386.8,217z"/>
						<path class="st17" d="M371.3,214.8c0.1-1.2,2-1.1,2,0.1l-0.8,7.5c0,1.1-1.1,1.1-1.1,0L371.3,214.8z"/>
						<path class="st19" d="M364.4,230.9c0,0,0.9-3.3,4.1-4.8c3.6-1.7,12.1,1.5,16.8-1.1c1.4-0.8,5-3.9,5-3.9"/>
						<path class="st19" d="M344.7,216.2c0,0,5,2.3,7.4,5.2c1.1,1.3,2.5,8.6,2.5,8.6"/>
					</g>
				</g>
			</g>
			<g>
				<path class="st15" d="M302.5,236.2c0,1.2-14.9,2.3-33.4,2.3s-33.4-1-33.4-2.3s14.9-2.3,33.4-2.3
					C287.5,233.9,302.5,235,302.5,236.2z"/>
				<g>
					<g>
						<path class="st16" d="M242.6,212.6c0,0,0.7-1.7,6.5,0.5c3.2,1.2,7.3,4.1,15.3,0.6c0,0,2.4,8.1-7.8,7.4
							C246.4,220.5,242.6,212.6,242.6,212.6z"/>
						<path class="st17" d="M299.5,225.7l2.4,0.6c1.3,0.7,1.3,4.3,0.2,5.4c0,0-9.6,5.6-37.6,6.1c-16.1-0.3-26.9-3.1-27.4-4.2
							s-0.5-3.5-0.4-5.3l3-3.5L299.5,225.7z"/>
						<path class="st5" d="M242.6,212.6c0,0-3.2,3-3.5,5.5c-0.5,3.6-1.1,5.4-0.8,9c0,0,9.1,3.5,24.2,3.7c7.5,0.1,18.2-0.4,26.1-1.8
							c6.7-1.2,13.3-2.8,13.3-2.8c-1.9-6.8-7.8-4.2-16.1-6.9c-5.7-1.8-19.1-12.9-19.1-12.9s-3.1,2.3-3.3,3.5
							c-0.1,0.8,1.4,2.7,1.4,2.7s-0.4,6.4-6.7,6.8C251.8,220,242.6,212.6,242.6,212.6z"/>
						<path class="st0" d="M301.9,226.3c0,0-5,3.4-12.4,4.8c-7.5,1.5-19.8,1.9-27.4,1.6c-8.4-0.3-25.5-4.4-25.5-4.4"/>
						<path class="st20" d="M264.8,212.8c0,0,3.2,0,4.4,0.4c2.7,0.9,10.5,7.2,16.3,7.9"/>
						<path class="st17" d="M274.4,212.5l-2.6,4.2c-0.4,0.5-1.9-0.6-1.6-1.1l2.4-4.4C273.2,210.5,274.9,211.8,274.4,212.5z"/>
						<path class="st17" d="M278.2,214.7l-2.7,4.5c-0.3,0.7-2.1,0-1.7-0.8l2.7-5C277,212.7,278.7,214.1,278.2,214.7z"/>
						<path class="st17" d="M282,217l-2.8,4.5c-0.3,0.6-2-0.2-1.7-0.8l2.7-5C280.8,215,282.5,216.3,282,217z"/>
						<path class="st17" d="M266.5,214.8c0.1-1.2,2-1.1,2,0.1l-0.8,7.5c0,1.1-1.1,1.1-1.1,0L266.5,214.8z"/>
						<path class="st20" d="M259.6,230.9c0,0,0.9-3.3,4.1-4.8c3.6-1.7,12.1,1.5,16.8-1.1c1.4-0.8,5-3.9,5-3.9"/>
						<path class="st20" d="M239.9,216.2c0,0,5,2.3,7.4,5.2c1.1,1.3,2.5,8.6,2.5,8.6"/>
					</g>
				</g>
			</g>
			<g>
				<path class="st15" d="M507.3,236.2c0,1.2-14.9,2.3-33.4,2.3s-33.4-1-33.4-2.3s14.9-2.3,33.4-2.3S507.3,235,507.3,236.2z"/>
				<g>
					<g>
						<path class="st21" d="M447.4,212.6c0,0,0.7-1.7,6.5,0.5c3.2,1.2,7.3,4.1,15.3,0.6c0,0,2.4,8.1-7.8,7.4
							C451.2,220.5,447.4,212.6,447.4,212.6z"/>
						<path class="st17" d="M504.4,225.7l2.4,0.6c1.3,0.7,1.3,4.3,0.2,5.4c0,0-9.6,5.6-37.6,6.1c-16.1-0.3-26.9-3.1-27.4-4.2
							c-0.5-1.1-0.5-3.5-0.4-5.3l3-3.5L504.4,225.7z"/>
						<path class="st1" d="M447.4,212.6c0,0-3.2,3-3.5,5.5c-0.5,3.6-1.1,5.4-0.8,9c0,0,9.1,3.5,24.2,3.7c7.5,0.1,18.2-0.4,26.1-1.8
							c6.7-1.2,13.3-2.8,13.3-2.8c-1.9-6.8-7.8-4.2-16.1-6.9c-5.7-1.8-19.1-12.9-19.1-12.9s-3.1,2.3-3.3,3.5
							c-0.1,0.8,1.4,2.7,1.4,2.7s-0.4,6.4-6.7,6.8C456.7,220,447.4,212.6,447.4,212.6z"/>
						<path class="st0" d="M506.7,226.3c0,0-5,3.4-12.4,4.8c-7.5,1.5-19.8,1.9-27.4,1.6c-8.4-0.3-25.5-4.4-25.5-4.4"/>
						<path class="st20" d="M469.6,212.8c0,0,3.2,0,4.4,0.4c2.7,0.9,10.5,7.2,16.3,7.9"/>
						<path class="st17" d="M479.2,212.5l-2.6,4.2c-0.4,0.5-1.9-0.6-1.6-1.1l2.4-4.4C478,210.5,479.8,211.8,479.2,212.5z"/>
						<path class="st17" d="M483,214.7l-2.7,4.5c-0.3,0.7-2.1,0-1.7-0.8l2.7-5C481.8,212.7,483.6,214.1,483,214.7z"/>
						<path class="st17" d="M486.8,217l-2.8,4.5c-0.3,0.6-2-0.2-1.7-0.8l2.7-5C485.6,215,487.3,216.3,486.8,217z"/>
						<path class="st17" d="M471.3,214.8c0.1-1.2,2-1.1,2,0.1l-0.8,7.5c0,1.1-1.1,1.1-1.1,0L471.3,214.8z"/>
						<path class="st20" d="M464.4,230.9c0,0,0.9-3.3,4.1-4.8c3.6-1.7,12.1,1.5,16.8-1.1c1.4-0.8,5-3.9,5-3.9"/>
						<path class="st20" d="M444.7,216.2c0,0,5,2.3,7.4,5.2c1.1,1.3,2.5,8.6,2.5,8.6"/>
					</g>
				</g>
			</g>
			<g>
				<path class="st8" d="M336.3,196.5v0.1c0,0.5-0.1,0.7-0.4,0.7H333c-0.3,0-0.4-0.2-0.4-0.7v-0.1c0-0.5,0.1-0.7,0.4-0.7h2.9
					C336.1,195.7,336.3,195.9,336.3,196.5z"/>
				<path class="st8" d="M343,192.5c0,2.1-1.1,2.5-2.1,2.5s-2.1-0.4-2.1-2.5s1.1-2.5,2.1-2.5S343,190.4,343,192.5z M340.2,192.5
					c0,0.6,0.1,1.3,0.7,1.3s0.7-0.7,0.7-1.3s-0.1-1.2-0.7-1.2C340.3,191.2,340.2,191.9,340.2,192.5z M346.9,190.3c0,0,0,0.1-0.1,0.2
					l-5.1,9.6c-0.1,0.3-0.3,0.4-0.6,0.4h-0.6c-0.2,0-0.3-0.1-0.3-0.2c0-0.1,0-0.1,0.1-0.2l5.1-9.6c0.1-0.3,0.3-0.4,0.6-0.4h0.6
					C346.9,190.1,346.9,190.1,346.9,190.3z M348.5,198.1c0,2.1-1.1,2.5-2.1,2.5s-2.1-0.4-2.1-2.5s1.1-2.5,2.1-2.5
					C347.3,195.6,348.5,196,348.5,198.1z M345.7,198.1c0,0.6,0.1,1.3,0.7,1.3s0.7-0.7,0.7-1.3s-0.1-1.2-0.7-1.2
					C345.8,196.9,345.7,197.5,345.7,198.1z"/>
			</g>
			<g>
				<g>
					<path class="st18" d="M397,244.8v1c1.4,0,3.9,0.6,3.9,1.4c0,0.4-0.5,1.3-0.8,1.3c-0.4,0-1.2-0.9-3.1-0.9v5.7
						c2.2,0.8,4.7,1.7,4.7,5c0,2.8-1.8,4.5-4.7,4.8v1.2c0,0.3-0.1,0.4-0.5,0.4s-0.5-0.1-0.5-0.4v-1.2c-2.8-0.1-4.8-1.1-4.8-1.8
						c0-0.4,0.6-1.3,0.9-1.3s1.6,1.3,4,1.3V255c-2.1-0.8-4.5-1.7-4.5-4.8c0-2.4,1.8-4.1,4.5-4.3v-1c0-0.3,0.1-0.4,0.5-0.4
						S397,244.6,397,244.8z M393.7,250.3c0,1.4,1,2.1,2.3,2.6v-5.2C394.6,247.9,393.7,248.8,393.7,250.3z M397,261.3
						c1.4-0.3,2.4-1.4,2.4-3c0-1.5-1.1-2.3-2.4-2.9V261.3z"/>
				</g>
				<path class="st18" d="M386,263.9h-39c-2.2,0-3.9-1.8-3.9-3.9v-0.6c0-2.2,1.8-3.9,3.9-3.9h39c2.2,0,3.9,1.8,3.9,3.9v0.6
					C389.9,262.1,388.2,263.9,386,263.9z"/>
			</g>
		</g>
		<g>
			<path class="st22" d="M671,447.3H79c-2.2,0-3.2-2.8-1.5-4.2l88.7-70.8c1.9-1.5,4.3-2.4,6.8-2.4h403.9c2.5,0,4.9,0.8,6.8,2.4
				l88.7,70.8C674.2,444.5,673.2,447.3,671,447.3z"/>
			<g>
				<path class="st23" d="M668.7,418.4H81.3l91.1-72.8c1.8-1.5,4.2-2.3,6.6-2.3h392c2.4,0,4.8,0.8,6.6,2.3L668.7,418.4z"/>
				<polygon class="st9" points="610.5,411.8 139.5,411.8 205.8,349.8 544.2,349.8 				"/>
				<polygon class="st4" points="604.7,411.8 145.3,411.8 210,352.5 540,352.5 				"/>
				<path class="st9" d="M654.4,437.9H95.6c-7.9,0-14.3-6.4-14.3-14.3v-5.2h587.4v5.2C668.7,431.5,662.3,437.9,654.4,437.9z"/>
				<line class="st24" x1="81.3" y1="425.9" x2="668.7" y2="425.9"/>
				<path class="st8" d="M278.7,431.7h-80.4c-2.6,0-4.8-2.1-4.8-4.8v-0.7c0-2.6,2.1-4.8,4.8-4.8h80.4c2.6,0,4.8,2.1,4.8,4.8v0.7
					C283.5,429.5,281.3,431.7,278.7,431.7z"/>
				<path class="st23" d="M279.2,431.7h-81.4c-2.3,0-4.2-1.9-4.2-4.2v-0.6c0-2.3,1.9-4.2,4.2-4.2h81.4c2.3,0,4.2,1.9,4.2,4.2v0.6
					C283.5,429.8,281.6,431.7,279.2,431.7z"/>
				<g>
					<polygon class="st9" points="567,361.2 600.4,390.7 618.3,390.7 618.3,388.4 567,358.9 					"/>
					<polygon class="st25" points="567,358.9 600.4,388.4 618.3,388.4 581.2,358.9 					"/>
				</g>
				<ellipse class="st4" cx="159.3" cy="373" rx="14" ry="6.1"/>
				<path class="st8" d="M169.2,372.5c0,2.1-4.4,3.8-9.8,3.8c-5.4,0-9.8-1.7-9.8-3.8s4.4-3.8,9.8-3.8S169.2,370.4,169.2,372.5z"/>
				<path class="st4" d="M160.5,371.6c0,0.7-1.5,1.3-3.4,1.3s-3.4-0.6-3.4-1.3s1.5-1.3,3.4-1.3S160.5,370.9,160.5,371.6z"/>
			</g>
		</g>
		<g>
			<g>
				<g>
					<g>
						<path class="st23" d="M552.4,125.1H228.8c-7.4,0-13.4-6-13.4-13.4v-2c0-7.4,6-13.4,13.4-13.4h323.6c7.4,0,13.4,6,13.4,13.4v2
							C565.8,119.1,559.8,125.1,552.4,125.1z"/>
						<circle class="st23" cx="162.8" cy="110.7" r="14.4"/>
						<circle class="st23" cx="196.3" cy="110.7" r="14.4"/>
					</g>
				</g>
				<polygon class="st23" points="585.7,95.6 590.5,105.7 601.6,107.1 593.4,114.8 595.5,125.8 585.7,120.4 575.9,125.8 578,114.8 
					569.8,107.1 581,105.7 				"/>
				<g>
					<g>
						<path class="st10" d="M552.4,120.1H228.8c-7.4,0-13.4-6-13.4-13.4v-2c0-7.4,6-13.4,13.4-13.4h323.6c7.4,0,13.4,6,13.4,13.4v2
							C565.8,114.1,559.8,120.1,552.4,120.1z"/>
						<g>
							<path class="st26" d="M300,100.4v0.5c1.3,0,2.5,0.5,2.5,1c0,0.4-0.4,1.2-0.7,1.2c-0.2,0-0.7-0.4-1.8-0.5v2.9
								c1.4,0.6,3,1.2,3,3.3c0,2.1-1.4,3.2-3,3.3v0.7c0,0.3-0.1,0.4-0.4,0.4s-0.4-0.1-0.4-0.4v-0.7c-2-0.1-3.3-0.8-3.3-1.3
								c0-0.4,0.5-1.2,0.8-1.2s1.1,0.8,2.4,0.8v-3.1c-1.4-0.5-3-1.1-3-3.3c0-1.9,1.4-2.9,3-3v-0.5c0-0.3,0.1-0.4,0.4-0.4
								C299.9,100,300,100.1,300,100.4z M298.1,103.9c0,0.6,0.4,1,1.1,1.3v-2.4C298.4,102.9,298.1,103.4,298.1,103.9z M300,110.3
								c0.6-0.2,1-0.6,1-1.3c0-0.6-0.4-1-1-1.3V110.3z"/>
							<path class="st26" d="M307.8,107.8L307.8,107.8c0,0.6-0.1,0.8-0.4,0.8h-3.1c-0.3,0-0.4-0.2-0.4-0.7v-0.1
								c0-0.5,0.1-0.7,0.4-0.7h3.1C307.7,107.1,307.8,107.3,307.8,107.8z"/>
							<path class="st26" d="M313.7,103.5c0,2.2-1.2,2.6-2.3,2.6c-1.1,0-2.3-0.5-2.3-2.6s1.2-2.6,2.3-2.6S313.7,101.4,313.7,103.5z
								 M310.5,103.5c0,0.7,0.1,1.5,0.9,1.5s0.9-0.8,0.9-1.5s-0.1-1.4-0.9-1.4C310.7,102.1,310.5,102.9,310.5,103.5z M318.1,101.2
								c0,0,0,0.1-0.1,0.2l-5.7,10.3c-0.1,0.3-0.3,0.4-0.7,0.4h-0.5c-0.2,0-0.3-0.1-0.3-0.2c0,0,0-0.1,0.1-0.2l5.7-10.3
								c0.1-0.3,0.4-0.4,0.7-0.4h0.5C317.9,101,318.1,101.1,318.1,101.2z M319.7,109.5c0,2.2-1.2,2.6-2.3,2.6
								c-1.1,0-2.3-0.4-2.3-2.6s1.2-2.6,2.3-2.6S319.7,107.4,319.7,109.5z M316.5,109.5c0,0.7,0.1,1.5,0.9,1.5s0.9-0.8,0.9-1.5
								c0-0.6-0.1-1.4-0.9-1.4C316.7,108.1,316.5,108.9,316.5,109.5z"/>
						</g>
						<path class="st26" d="M285.9,113.2h-28.2c-3.6,0-6.6-3-6.6-6.6l0,0c0-3.6,3-6.6,6.6-6.6h28.2c3.6,0,6.6,3,6.6,6.6l0,0
							C292.5,110.3,289.5,113.2,285.9,113.2z"/>
						<circle class="st10" cx="162.8" cy="105.7" r="14.4"/>
						<circle class="st10" cx="196.3" cy="105.7" r="14.4"/>
					</g>
				</g>
				<polygon class="st27" points="585.7,90.6 590.5,100.8 601.6,102.1 593.4,109.8 595.5,120.8 585.7,115.4 575.9,120.8 578,109.8 
					569.8,102.1 581,100.8 				"/>
			</g>
			<polygon class="st8" points="164.6,96.9 155.5,106 164.6,115.1 166.3,113.4 158.9,106 166.3,98.7 			"/>
			<polygon class="st8" points="195,115.1 204.1,106.1 195,96.9 193.3,98.7 200.6,106.1 193.3,113.4 			"/>
			<path class="st8" d="M245,114l-5.8-5.7c0.8-1.2,1.2-2.7,1.2-4.1c0-4.1-3.4-7.5-7.6-7.5c-2,0-3.9,0.8-5.3,2.2
				c-1.4,1.4-2.2,3.3-2.2,5.3c0,4.1,3.4,7.5,7.6,7.5l0,0c1.5,0,2.9-0.4,4.2-1.2l5.8,5.7L245,114z M238.2,104.1
				c0,1.4-0.6,2.7-1.5,3.7c-1,1-2.3,1.5-3.7,1.5l0,0c-2.9,0-5.3-2.4-5.3-5.3c0-1.4,0.6-2.7,1.5-3.7c1-1,2.3-1.5,3.7-1.5
				C235.8,98.9,238.1,101.2,238.2,104.1z"/>
			<path class="st28" d="M546.3,106l-3.3,3.3c-0.4,0.4-0.4,1,0,1.4s1,0.4,1.4,0l3.3-3.3l3.3,3.3c0.4,0.4,1,0.4,1.4,0s0.4-1,0-1.4
				l-3.3-3.3l3.3-3.3c0.4-0.4,0.4-1,0-1.4s-1-0.4-1.4,0l-3.3,3.3l-3.3-3.3c-0.4-0.4-1-0.4-1.4,0s-0.4,1,0,1.4L546.3,106z
				 M547.7,116.6c-5.8,0-10.5-4.7-10.5-10.6s4.7-10.6,10.5-10.6s10.5,4.7,10.5,10.6S553.5,116.6,547.7,116.6z"/>
		</g>
		<g>
			<path class="st18" d="M183.9,172.6c0-10.7-8.7-19.4-19.4-19.4s-19.4,8.7-19.4,19.4l0,0c0,4.5-1.3,7.4,19.4,44.7
				C185.4,179.8,183.9,174.9,183.9,172.6z"/>
			<path class="st4" d="M164.5,181.6c-4.7,0-8.6-3.8-8.6-8.6s3.8-8.6,8.6-8.6c4.7,0,8.6,3.8,8.6,8.6S169.2,181.6,164.5,181.6z"/>
		</g>
		<path class="st29" d="M433.1,258.4"/>
		<g>
			<g>
				<g>
					<path class="st22" d="M320.6,372.1l-7.9,13.7c-1.6,2.8,0.6,6.1,4,6.1h77.6c3.1,0,5.3-2.8,4.3-5.5l-4.9-13.7
						c-0.6-1.7-2.3-2.9-4.3-2.9h-64.8C322.9,369.9,321.4,370.8,320.6,372.1z"/>
					<g>
						<g>
							<path class="st8" d="M336.5,368.3c0,3.8-3.1,6.9-6.9,6.9s-6.9-3.1-6.9-6.9s3.1-6.9,6.9-6.9S336.5,364.5,336.5,368.3z"/>
							<circle class="st30" cx="329.6" cy="368.3" r="4.1"/>
							<path class="st31" d="M326.8,367.6l2.4-6.2c0.1-0.3,0.4-0.6,0.8-0.6h8.2c0.8,0,1.1,0.9,0.6,1.4l-7.4,8
								c-0.6,0.7-1.6,0.9-2.4,0.6l-0.7-0.2C327,370.2,326.4,368.8,326.8,367.6z"/>
							<circle class="st8" cx="329.6" cy="368.3" r="1.6"/>
						</g>
						<g>
							<path class="st8" d="M376.4,368.3c0,3.8,3.1,6.9,6.9,6.9s6.9-3.1,6.9-6.9s-3.1-6.9-6.9-6.9S376.4,364.5,376.4,368.3z"/>
							<path class="st30" d="M379.1,368.3c0,2.3,1.9,4.1,4.1,4.1s4.1-1.9,4.1-4.1s-1.9-4.1-4.1-4.1C381,364.2,379.1,366,379.1,368.3
								z"/>
							<path class="st31" d="M386,367.6l-2.4-6.2c-0.1-0.3-0.4-0.6-0.8-0.6h-8.2c-0.8,0-1.1,0.9-0.6,1.4l7.4,8
								c0.6,0.7,1.6,0.9,2.4,0.6l0.7-0.2C385.8,370.2,386.5,368.8,386,367.6z"/>
							<circle class="st8" cx="383.3" cy="368.3" r="1.6"/>
						</g>
						<g>
							<path class="st18" d="M311.5,304.3c-0.4,0-0.8-0.2-0.9-0.6c-2.3-5.4-6.2-14.2-6.9-15.3c-1-0.8-8.9-3.6-16-5.9
								c-0.4-0.1-0.7-0.5-0.7-1c0-0.4,0.3-0.8,0.7-1l12.7-4.1c0.2-0.1,0.4-0.1,0.6,0c1.2,0.3,11.9,3.3,14.2,5.4
								c1.8,1.7,7.2,12.9,8.3,15.2c0.2,0.5,0,1.1-0.5,1.4c-0.5,0.2-1.1,0-1.4-0.5c-2.4-5-6.6-13.4-7.8-14.5c-1.4-1.3-8.6-3.6-13-4.9
								l-9.4,3c6.5,2.2,13.3,4.6,14,5.6c0.8,1.1,6.1,13.4,7.2,15.8c0.2,0.5,0,1.1-0.5,1.3C311.8,304.3,311.7,304.3,311.5,304.3z"/>
						</g>
						<polygon class="st32" points="308.8,299.1 320.3,292 409.2,296.3 411.2,301.9 						"/>
						<path class="st18" d="M307.9,299.3l13.4,44.4c0.4,1.3,1.6,2.2,3,2.2l74.4-2.3c1.4,0,2.6-1,2.9-2.3l9.5-39.3L307.9,299.3z"/>
						<path class="st33" d="M327.9,317.9c4.8,10,15.4,12,25.6,11.5c21.7-1.1,40.7-9.6,53.4-27.6l-79.1-2c-1.2,0-1.7,7.6-1.8,8.6
							C325.8,311.6,326.5,314.9,327.9,317.9z"/>
						<path class="st18" d="M398.6,368.1c-0.9-3.6-2.8-7.3-4.1-9.1c-0.7-1-1.9-2-4.6-2h-61.6c-1,0-2.7-0.2-3.4-1.2
							c-0.7-1-0.3-2.6,0.2-3.8c1.8-4.7,3.4-7.6,3.5-7.6l-2.4,0.2c-0.1,0.1-1.1,1.9-2.9,6.7c-0.9,2.4-0.9,4.3,0.1,5.7
							c1,1.4,2.7,2.1,5.1,2.1h3.3v1.4c0,0.9,0.7,1.6,1.6,1.6h1.2c0.9,0,1.6-0.7,1.6-1.6V359h40.7v1.4c0,0.9,0.7,1.6,1.6,1.6h1.2
							c0.9,0,1.6-0.7,1.6-1.6V359h9c1.9,0,2.5,0.6,2.9,1.2c1.3,1.7,3,5.2,3.8,8.4c0.2,0.7,0.1,1.3-0.1,1.6c-0.6,0.7-2,0.8-2.4,0.8
							c-14.3,0.3-45.1,0.1-61.6,0c-4.9,0-8.6,0-10.4,0c-2.5,0-4.4-0.7-5.3-2c-0.8-1.3-0.8-3.1,0.1-5.3c2-4.9,7.8-19.5,7.8-19.5
							l-1.9-0.8c0,0-5.8,14.6-7.8,19.5c-1.5,3.6-0.7,5.9,0.1,7.2c1.3,1.9,3.7,2.9,6.9,2.9c1.2,0,3.2,0,5.8,0v1.3
							c0,0.9,0.7,1.6,1.6,1.6h1.2c0.9,0,1.6-0.7,1.6-1.6v-1c0.1-0.1,0.2-0.2,0.3-0.3c9.4,0.1,23.5,0.1,36.5,0.1c3.5,0,7,0,10.2,0
							v1.2c0,0.9,0.7,1.6,1.6,1.6h1.2c0.9,0,1.6-0.7,1.6-1.6v-1.2c4.1,0,7.7-0.1,10.7-0.1c1,0,2.9-0.3,4-1.6
							C398.8,370.6,399,369.5,398.6,368.1z"/>
						<g>
							<path class="st4" d="M408.2,301.1l-9.2,38c-0.3,1-1.2,1.8-2.3,1.8L362,342c2.7-2.9,5.4-5.8,8-8.8c0.2-0.2,0.3-0.5,0.1-0.6
								c-0.1-0.1-0.4-0.1-0.6,0.2c-2.9,3-5.7,5.9-8.5,8.9l0,0c-0.1,0.1-0.2,0.2-0.2,0.3l-30.7,0.9c2.9-3.1,5.7-6.2,8.5-9.3
								c0.2-0.2,0.3-0.5,0.2-0.6c-0.1-0.1-0.4,0-0.6,0.2c-3,3.1-6,6.2-8.9,9.4l0,0c-0.1,0.1-0.2,0.3-0.3,0.5l-2.8,0.1
								c-1.1,0-2.1-0.7-2.4-1.7l-6.1-20.2c1.6-1.7,3.1-3.5,4.7-5.2c0.1-0.1,0.1-0.3,0-0.4s-0.3-0.1-0.5,0c-1.5,1.5-3,3.1-4.5,4.6
								l-6.6-21.7l-1,0.3l13,42.9c0.4,1.4,1.8,2.4,3.3,2.4h0.1l70.5-2.2c1.5,0,2.9-1.1,3.2-2.6l9.2-38L408.2,301.1z"/>
							<path class="st4" d="M323.2,315.1c0.3-0.2,0.5-0.4,0.7-0.6s0.4-0.5,0.6-0.8c0.1-0.1,0.1-0.3,0-0.4c-0.1-0.2-0.3-0.2-0.5-0.1
								c-0.3,0.2-0.5,0.4-0.7,0.6s-0.4,0.5-0.6,0.8c-0.1,0.1-0.1,0.3,0,0.4C322.8,315.2,323.1,315.3,323.2,315.1z"/>
							<path class="st4" d="M325.1,313.1c0.1,0,0.2-0.1,0.2-0.1c0-0.1,0.1-0.1,0.1-0.3l0,0c0-0.3-0.3-0.5-0.5-0.5
								c-0.1,0-0.2,0.1-0.2,0.1c0,0.1-0.1,0.1-0.1,0.3l0,0C324.6,312.9,324.8,313.1,325.1,313.1z"/>
							<path class="st4" d="M333.6,304c2.1-2.1,4.1-4.2,6.1-6.4l0,0c0.2-0.2,0.2-0.5,0-0.6c-0.2-0.2-0.5-0.2-0.6,0
								c-2,2.2-4,4.4-6,6.6c-0.1,0.1-0.1,0.3,0,0.5C333.3,304.1,333.5,304.1,333.6,304z"/>
							<path class="st4" d="M332.6,305.2c0.1,0,0.2-0.1,0.2-0.1c0-0.1,0.1-0.1,0.1-0.3l0,0c0-0.3-0.3-0.5-0.5-0.5
								c-0.1,0-0.2,0.1-0.2,0.1c0,0.1-0.1,0.1-0.1,0.3l0,0C332,305,332.3,305.2,332.6,305.2z"/>
							<path class="st4" d="M331.4,306.4c0.1,0,0.2-0.1,0.2-0.1c0-0.1,0.1-0.1,0.1-0.3l0,0c0-0.3-0.3-0.5-0.5-0.5
								c-0.1,0-0.2,0.1-0.2,0.1c0,0.1-0.1,0.1-0.1,0.3l0,0C330.9,306.2,331.1,306.4,331.4,306.4z"/>
							<path class="st4" d="M330.3,307.6c0.1,0,0.2-0.1,0.2-0.1c0-0.1,0.1-0.1,0.1-0.3l0,0c0-0.3-0.3-0.5-0.5-0.5
								c-0.1,0-0.2,0.1-0.2,0.1c0,0.1-0.1,0.1-0.1,0.3l0,0C329.8,307.4,330,307.6,330.3,307.6z"/>
							<path class="st4" d="M326.4,311.8c0.5-0.4,1-1,1.5-1.4c0.5-0.5,0.9-1,1.3-1.6c0.1-0.1,0.1-0.3,0-0.4c-0.1-0.2-0.4-0.2-0.5,0
								c-0.5,0.4-1,1-1.5,1.4c-0.5,0.5-0.9,1-1.3,1.6c-0.1,0.1-0.1,0.3,0,0.4S326.3,311.9,326.4,311.8z"/>
							<path class="st4" d="M339.5,332.1c0.1,0.2,0.4,0.2,0.7,0c0.4-0.4,0.8-0.8,1.2-1.2c0.4-0.4,0.8-0.8,1.1-1.3
								c0.1-0.2,0.2-0.4,0.1-0.5c-0.1-0.2-0.4-0.2-0.7,0c-0.4,0.4-0.8,0.8-1.2,1.2c-0.4,0.4-0.8,0.8-1.1,1.3
								C339.5,331.8,339.4,332,339.5,332.1z"/>
							<path class="st4" d="M343.6,328.4c0.2-0.1,0.3-0.2,0.4-0.3c0.1-0.1,0.2-0.2,0.2-0.4l0,0c0.1-0.4-0.1-0.6-0.5-0.5
								c-0.2,0.1-0.3,0.2-0.4,0.3c-0.1,0.1-0.2,0.2-0.2,0.4l0,0C342.9,328.3,343.2,328.6,343.6,328.4z"/>
							<path class="st4" d="M359,311.9c3.7-3.9,7.4-7.8,11.1-11.7l0,0c0.3-0.3,0.4-0.7,0.2-0.9s-0.6,0-0.9,0.3
								c-3.6,3.9-7.3,7.9-10.9,11.8c-0.2,0.2-0.3,0.5-0.2,0.6C358.4,312.2,358.7,312.1,359,311.9z"/>
							<path class="st4" d="M357,314c0.2-0.1,0.3-0.2,0.4-0.3c0.1-0.1,0.2-0.2,0.2-0.4l0,0c0.1-0.4-0.1-0.6-0.5-0.5
								c-0.2,0.1-0.3,0.2-0.4,0.3c-0.1,0.1-0.2,0.2-0.2,0.4l0,0C356.4,313.9,356.6,314.2,357,314z"/>
							<path class="st4" d="M355,316.2c0.2-0.1,0.3-0.2,0.4-0.3c0.1-0.1,0.2-0.2,0.2-0.4l0,0c0.1-0.4-0.1-0.6-0.5-0.5
								c-0.2,0.1-0.3,0.2-0.4,0.3c-0.1,0.1-0.2,0.2-0.2,0.4l0,0C354.3,316.1,354.6,316.4,355,316.2z"/>
							<path class="st4" d="M352.9,318.4c0.2-0.1,0.3-0.2,0.4-0.3c0.1-0.1,0.2-0.2,0.2-0.4l0,0c0.1-0.4-0.1-0.6-0.5-0.5
								c-0.2,0.1-0.3,0.2-0.4,0.3c-0.1,0.1-0.2,0.2-0.2,0.4l0,0C352.3,318.3,352.5,318.5,352.9,318.4z"/>
							<path class="st4" d="M345.9,325.9c0.9-0.9,1.8-1.8,2.6-2.7c0.8-0.9,1.7-1.8,2.5-2.8c0.2-0.2,0.3-0.5,0.2-0.6
								c-0.1-0.2-0.4-0.1-0.7,0.1c-0.9,0.9-1.8,1.8-2.6,2.7c-0.8,0.9-1.7,1.8-2.5,2.8c-0.2,0.2-0.3,0.5-0.2,0.6
								C345.3,326.2,345.6,326.2,345.9,325.9z"/>
							<path class="st4" d="M371.4,331.7c0.4-0.3,0.8-0.7,1.2-1.1c0.4-0.4,0.7-0.8,1-1.3c0.1-0.2,0.2-0.4,0.1-0.5
								c-0.1-0.2-0.4-0.2-0.6,0c-0.4,0.3-0.8,0.7-1.2,1.1c-0.4,0.4-0.7,0.8-1,1.3c-0.1,0.2-0.2,0.4-0.1,0.5
								C370.9,331.9,371.1,331.9,371.4,331.7z"/>
							<path class="st4" d="M374.7,328.2c0.2,0,0.3-0.2,0.4-0.3c0.1-0.1,0.2-0.2,0.2-0.4l0,0c0.1-0.4-0.2-0.6-0.5-0.5
								c-0.2,0-0.3,0.2-0.4,0.3c-0.1,0.1-0.2,0.2-0.2,0.4l0,0C374.1,328.1,374.3,328.3,374.7,328.2z"/>
							<path class="st4" d="M389.4,312.4c3.5-3.7,7.1-7.4,10.6-11.1l0,0c0.3-0.3,0.4-0.7,0.2-0.9c-0.2-0.2-0.6-0.1-0.9,0.3
								c-3.5,3.7-6.9,7.5-10.4,11.3c-0.2,0.2-0.3,0.5-0.1,0.6C388.9,312.7,389.2,312.6,389.4,312.4z"/>
							<path class="st4" d="M387.5,314.5c0.2,0,0.3-0.2,0.4-0.3c0.1-0.1,0.2-0.2,0.2-0.4l0,0c0.1-0.4-0.2-0.6-0.5-0.5
								c-0.2,0-0.3,0.2-0.4,0.3c-0.1,0.1-0.2,0.2-0.2,0.4l0,0C386.9,314.4,387.2,314.6,387.5,314.5z"/>
							<path class="st4" d="M385.6,316.6c0.2,0,0.3-0.2,0.4-0.3c0.1-0.1,0.2-0.2,0.2-0.4l0,0c0.1-0.4-0.2-0.6-0.5-0.5
								c-0.2,0-0.3,0.2-0.4,0.3c-0.1,0.1-0.2,0.2-0.2,0.4l0,0C385,316.5,385.2,316.7,385.6,316.6z"/>
							<path class="st4" d="M383.6,318.7c0.2,0,0.3-0.2,0.4-0.3c0.1-0.1,0.2-0.2,0.2-0.4l0,0c0.1-0.4-0.2-0.6-0.5-0.5
								c-0.2,0-0.3,0.2-0.4,0.3c-0.1,0.1-0.2,0.2-0.2,0.4l0,0C383,318.6,383.3,318.8,383.6,318.7z"/>
							<path class="st4" d="M376.9,325.8c0.9-0.8,1.7-1.7,2.5-2.6s1.6-1.8,2.4-2.7c0.2-0.2,0.2-0.5,0.1-0.6
								c-0.1-0.2-0.4-0.1-0.7,0.1c-0.9,0.8-1.7,1.7-2.5,2.6s-1.6,1.8-2.4,2.7c-0.2,0.2-0.2,0.5-0.1,0.6
								C376.4,326.1,376.7,326.1,376.9,325.8z"/>
						</g>
						<polygon class="st33" points="334.9,371.1 338.6,358.3 377,358.3 379.1,371.1 						"/>
						<g>
							<circle class="st8" cx="325" cy="383.8" r="8.1"/>
							<path class="st30" d="M329.8,383.8c0,2.7-2.2,4.9-4.9,4.9s-4.9-2.2-4.9-4.9s2.2-4.9,4.9-4.9
								C327.7,378.9,329.8,381.1,329.8,383.8z"/>
							<path class="st31" d="M321.8,382.9l2.8-7.3c0.1-0.4,0.5-0.7,0.9-0.7h9.7c0.9,0,1.3,1,0.7,1.7l-8.7,9.4
								c-0.7,0.8-1.8,1.1-2.9,0.7l-0.9-0.3C322,386,321.2,384.4,321.8,382.9z"/>
							<path class="st8" d="M326.8,383.8c0,1-0.8,1.9-1.9,1.9s-1.9-0.8-1.9-1.9s0.8-1.9,1.9-1.9S326.8,382.8,326.8,383.8z"/>
						</g>
						<g>
							<circle class="st8" cx="386.8" cy="383.8" r="8.1"/>
							<path class="st30" d="M382,383.8c0,2.7,2.2,4.9,4.9,4.9s4.9-2.2,4.9-4.9s-2.2-4.9-4.9-4.9C384.1,378.9,382,381.1,382,383.8z"
								/>
							<path class="st31" d="M390,382.9l-2.8-7.3c-0.1-0.4-0.5-0.7-0.9-0.7h-9.7c-0.9,0-1.3,1-0.7,1.7l8.7,9.4
								c0.7,0.8,1.8,1.1,2.8,0.7l0.9-0.3C389.8,386,390.6,384.4,390,382.9z"/>
							<path class="st8" d="M385,383.8c0,1,0.8,1.9,1.9,1.9s1.9-0.8,1.9-1.9s-0.8-1.9-1.9-1.9S385,382.8,385,383.8z"/>
						</g>
					</g>
					<g>
						<ellipse class="st5" cx="408.2" cy="298.3" rx="18.3" ry="18.3"/>
						<g>
							<path class="st8" d="M411.5,288.5v16.2h3.1c0.6,0,0.9,0.4,0.9,1.4v0.5c0,1-0.3,1.4-0.9,1.4h-11.1c-0.6,0-0.9-0.4-0.9-1.4
								v-0.5c0-1,0.3-1.4,0.9-1.4h3.8v-12.9l-3.9,0.6c-0.7,0-0.9-1.6-0.9-2.4c0-0.4,0.3-0.7,0.7-0.8l7.1-1.3
								C410.8,287.8,411.5,288.2,411.5,288.5z"/>
						</g>
					</g>
				</g>
				<g>
					<polygon class="st6" points="334.7,284.5 334.7,298.9 368.8,299.8 368.8,283 					"/>
					<polygon class="st34" points="368.8,283 368.8,299.8 385,300.3 385,285.9 					"/>
					<polygon class="st5" points="333.7,281.7 369.6,280.3 369.6,285 333.7,286.5 					"/>
					<polygon class="st6" points="369.6,285 386.2,287.8 386.2,283.4 369.6,280.3 					"/>
				</g>
			</g>
			<g>
				<ellipse class="st22" cx="255.9" cy="383.7" rx="49.3" ry="2.8"/>
			</g>
			<g>
				<g>
					<g>
						<path class="st29" d="M279.7,351.1c0.8,7.9,7.5,19.5,10,26c0.8,1.9,4.4,0.8,4-1.2c-1.4-6.8-2.3-20.7-3-27.8
							C290,339.8,279,343.6,279.7,351.1z"/>
						<g>
							<g>
								<path id="SVGID_1_" class="st35" d="M289.9,377.1c0,0-0.8,2.2,0.5,5.1c-0.2,0.1-0.1,1.1,0.4,1.3c0.5,0.2,4.2,0.2,4.9-0.4
									c0.2-0.3,0-0.7,0-0.7s0.9,0.3,3.5-0.1s4-1.2,5-1.9c0.3-0.2,0.1-0.9-0.3-0.8c0,0-0.2-1.8-1.7-1.7c-3.1,0.2-5.3-1.1-6.9-2
									c-0.8-0.5-1.6-0.9-2.1-0.9C292,374.9,290.4,375.7,289.9,377.1z"/>
							</g>
							<g>
								<g>
									<defs>
										<path id="SVGID_00000049899923563398853700000006190010560513483665_" d="M289.9,377.1c0,0-0.8,2.2,0.5,5.1
											c-0.2,0.1-0.1,1.1,0.4,1.3c0.5,0.2,4.2,0.2,4.9-0.4c0.2-0.3,0-0.7,0-0.7s0.9,0.3,3.5-0.1s4-1.2,5-1.9
											c0.3-0.2,0.1-0.9-0.3-0.8c0,0-0.2-1.8-1.7-1.7c-3.1,0.2-5.3-1.1-6.9-2c-0.8-0.5-1.6-0.9-2.1-0.9
											C292,374.9,290.4,375.7,289.9,377.1z"/>
									</defs>
									<clipPath id="SVGID_00000069383778937688232940000011290694488526167431_">
										<use xlink:href="#SVGID_00000049899923563398853700000006190010560513483665_"  style="overflow:visible;"/>
									</clipPath>
									<path style="clip-path:url(#SVGID_00000069383778937688232940000011290694488526167431_);fill:#FFAEC1;" d="M290.4,382.2
										c2.2,0.3,5.3-0.1,5.3-0.1s5.9-0.1,8.3-2.5s4.3,0.2,4.3,0.2l-9.7,7.7l-6.3-0.5l-2.8-2.4
										C289.4,384.6,289.2,382.1,290.4,382.2z"/>
								</g>
							</g>
							<g>
								<g>
									<defs>
										<path id="SVGID_00000109027544073401711420000017684837876186199211_" d="M289.9,377.1c0,0-0.8,2.2,0.5,5.1
											c-0.2,0.1-0.1,1.1,0.4,1.3c0.5,0.2,4.2,0.2,4.9-0.4c0.2-0.3,0-0.7,0-0.7s0.9,0.3,3.5-0.1s4-1.2,5-1.9
											c0.3-0.2,0.1-0.9-0.3-0.8c0,0-0.2-1.8-1.7-1.7c-3.1,0.2-5.3-1.1-6.9-2c-0.8-0.5-1.6-0.9-2.1-0.9
											C292,374.9,290.4,375.7,289.9,377.1z"/>
									</defs>
									<clipPath id="SVGID_00000043450127121359850910000014174252092742474148_">
										<use xlink:href="#SVGID_00000109027544073401711420000017684837876186199211_"  style="overflow:visible;"/>
									</clipPath>
									<path style="clip-path:url(#SVGID_00000043450127121359850910000014174252092742474148_);fill:#FFB072;" d="M289.4,377.3
										c0,0,0.9,1.5,2.6,1.1s1.9-1.4,1.5-3.3S287.6,374.4,289.4,377.3z"/>
								</g>
							</g>
						</g>
					</g>
					<g>
						<path class="st38" d="M253.8,294.4c0,0,11.4,20.5,15.2,28.9s8.5,29,8.5,29s9.4,2,14.3-2.4c0,0-1.6-21.8-4.2-31.6
							c-2.7-9.8-12.8-33.8-12.8-33.8C270.6,275.8,249.7,285.8,253.8,294.4z"/>
						<path class="st30" d="M263.1,310.5c0.1-0.1,0.9-3.7,3.2-7.8c2-3.5,6.9-6.3,7.4-5.8c0.9,0.7-6.3,6.1-7.7,10
							c0,0,8.1-5.9,8.6-5.1C275.1,302.5,266.3,307.3,263.1,310.5z"/>
					</g>
				</g>
				<g>
					<path class="st16" d="M261.9,243.9c1.9,8.7,4.8,20.2,11.2,25.8s20.4,8.8,21,8.8c1.6,0.4,3.2-7.8,2-8.8
						c-1.2-0.9-12.2-5.4-14.2-7.3c-3.5-3.4-2-23.8-5.9-28.3S259.7,233.8,261.9,243.9z"/>
					<path class="st39" d="M297,271.2c0,0,4.9,4.1,5.2,5.2c0.3,1.1,0.2,2.9-0.2,3.4s-3.4,2-4.5,1.2s-2.7-2.6-2.7-2.6l0.5-2
						c0,0-0.4,1.4-3.3-0.5C289,274,294.2,268.4,297,271.2z"/>
				</g>
				<g>
					<g>
						<path class="st29" d="M228.8,345.2c-5.9,5.3-11.3,17.6-14.9,23.5c-1.1,1.7,1.9,4,3.3,2.5c4.7-5.2,15.3-14.2,20.6-18.9
							C244,346.8,234.4,340.2,228.8,345.2z"/>
						<g>
							<g>
								<path id="SVGID_00000106841820721791209430000013979585647698645170_" class="st35" d="M214.6,368.2c0,0-2.2,0.5-4,3.2
									c-0.2-0.1-0.9,0.5-0.9,1c0.1,0.6,2.1,3.6,3,3.9c0.3,0,0.5-0.4,0.5-0.4s0.2,1,2,2.9s3.2,2.7,4.3,3.2c0.3,0.2,0.8-0.4,0.5-0.6
									c0,0,1.4-1.2,0.5-2.4c-1.9-2.5-2-5-2.1-6.9c0-0.9-0.1-1.8-0.4-2.2C217.5,368.8,216,367.8,214.6,368.2z"/>
							</g>
							<g>
								<g>
									<defs>
										<path id="SVGID_00000132062814807074509260000004957451338953858714_" d="M214.6,368.2c0,0-2.2,0.5-4,3.2
											c-0.2-0.1-0.9,0.5-0.9,1c0.1,0.6,2.1,3.6,3,3.9c0.3,0,0.5-0.4,0.5-0.4s0.2,1,2,2.9s3.2,2.7,4.3,3.2
											c0.3,0.2,0.8-0.4,0.5-0.6c0,0,1.4-1.2,0.5-2.4c-1.9-2.5-2-5-2.1-6.9c0-0.9-0.1-1.8-0.4-2.2
											C217.5,368.8,216,367.8,214.6,368.2z"/>
									</defs>
									<clipPath id="SVGID_00000161604661840675373180000014602647869136033922_">
										<use xlink:href="#SVGID_00000132062814807074509260000004957451338953858714_"  style="overflow:visible;"/>
									</clipPath>
									<path style="clip-path:url(#SVGID_00000161604661840675373180000014602647869136033922_);fill:#FFAEC1;" d="M210.6,371.4
										c1,2,2.9,4.4,2.9,4.4s3.3,4.9,6.6,5.6s2.2,3.7,2.2,3.7l-11.8-3.9l-3-5.6l0.5-3.7C208,371.9,210,370.3,210.6,371.4z"/>
								</g>
							</g>
							<g>
								<g>
									<defs>
										<path id="SVGID_00000112623726060864807440000013590739124587993230_" d="M214.6,368.2c0,0-2.2,0.5-4,3.2
											c-0.2-0.1-0.9,0.5-0.9,1c0.1,0.6,2.1,3.6,3,3.9c0.3,0,0.5-0.4,0.5-0.4s0.2,1,2,2.9s3.2,2.7,4.3,3.2
											c0.3,0.2,0.8-0.4,0.5-0.6c0,0,1.4-1.2,0.5-2.4c-1.9-2.5-2-5-2.1-6.9c0-0.9-0.1-1.8-0.4-2.2
											C217.5,368.8,216,367.8,214.6,368.2z"/>
									</defs>
									<clipPath id="SVGID_00000036226048470163191060000016456266559114318747_">
										<use xlink:href="#SVGID_00000112623726060864807440000013590739124587993230_"  style="overflow:visible;"/>
									</clipPath>
									<path style="clip-path:url(#SVGID_00000036226048470163191060000016456266559114318747_);fill:#FFB072;" d="M214.2,367.9
										c0,0-0.8,1.5,0.5,2.8s2.3,0.8,3.6-0.5C219.6,368.8,215.5,364.8,214.2,367.9z"/>
								</g>
							</g>
						</g>
					</g>
					<g>
						<path class="st8" d="M241.8,286.7c0,0,1.6,30-1.8,37.9c-3.4,7.9-12.1,20.7-12.1,20.7s2.4,7.5,11.3,8.5c0,0,13.4-9.4,18.7-23.7
							c5.3-14.3,9.7-30,7.5-41.7C264.1,281.9,243.4,277.2,241.8,286.7z"/>
						<path class="st42" d="M245.7,286.5c0,0,0.2,25-1,34.7c-1.1,9.4-15.6,26.7-15.6,26.7"/>
					</g>
				</g>
				<g>
					<g>
						<path class="st4" d="M275.4,234.9c2.3,4.6-1.8,22.1-1.8,29.7c0,6.2,1,16.6,1.9,20.5c0.2,1-0.2,2.1-1.1,2.7
							c-3.6,2.1-8.3,3.2-11.3,3.5c-11.3,1.1-16.8-0.9-19.3-1.9c-1.4-0.5-2.2-1.9-2-3.4c0.6-3.8,2.2-13.2,0.8-21.8
							c-1.8-11.2-4.7-26.5,0.5-31.3c5.3-4.7,15.2-7.7,15.2-7.7S272.5,229.2,275.4,234.9z"/>
						<g>
							<path class="st30" d="M260.6,220.5c0,0-2.5-0.4-6-4.7c-2.3-2.8-5.5-15.7,4.6-17.6c10.1-1.9,13,4.9,13.5,9.3
								c0.5,4.4-4.5,8.1-6.8,9.7C263.6,218.8,260.6,220.5,260.6,220.5z"/>
							<path class="st29" d="M258.2,215.4c0,0-0.3,3.9-1.5,6.9s-2.4,4-3.8,5.2c-1.4,1.3,5.8,9,12.2,10.9c0,0,4.7-5.7,2.5-8.8
								c-2.1-3.2-3.8-3.4-3.1-7.7c0.7-3.7,1.1-5.7,1.1-5.7L258.2,215.4z"/>
							<g>
								<g>
									<g>
										<path class="st43" d="M258.2,215.4c0,0-0.3,2.9,0.8,4.1c1.2,1.2,3.2,4.2,7.9,3.9c6.3-0.5,3.9-10.5,3.9-10.5s0.7-3.9,0-7
											c-0.7-3.2-6.9-4.8-12-3.3c0,0-1.5,1.4-0.9,7.6c0,0-0.9-1.1-2.4-0.3c-1.1,0.6-1.2,2.1-0.9,3.4
											C255.1,214.9,256.8,216.3,258.2,215.4z"/>
									</g>
									<path class="st44" d="M257.7,214.8l-0.6-1.5l0.9-0.4c0,0-0.6-2.8-2.2-1.7C254.6,212,256.1,215.3,257.7,214.8z"/>
								</g>
								<path class="st30" d="M258.3,212.6c0,0-0.6,3.9-0.5,5.6s1.8,7.1,9.7,6.6c7.8-0.5,5-9,3.7-9.6c0,0.6-0.2,1.5-0.8,1.9
									c-0.3-0.8-1.2-1.4-2.5-1.1c-1.1-0.6-2.4-0.2-3.8,0.6l-1,0.7c-2.4-0.6-3.7-2.2-4-4.6L258.3,212.6z"/>
								<g>
									<path class="st4" d="M265.1,217.4c0,0,4.1,0,4.2,0.3s-0.5,0.8-2.1,0.8C265.6,218.6,265.1,217.4,265.1,217.4z"/>
									<path class="st44" d="M265,217.4c0.2-0.1,0.2,0,0.3-0.1h0.1h0.3h0.6h1.2c0.4,0,0.8,0,1.2,0.1c0.2,0,0.4,0,0.6,0.1
										c0.1,0,0.1,0,0.2,0.1c0.1,0,0.1,0.1,0.1,0.2c0,0.1-0.1,0.2-0.2,0.3c-0.6,0.5-1.5,0.6-2.3,0.6c-0.4,0-0.8-0.1-1.2-0.3
										c-0.2-0.1-0.3-0.2-0.5-0.4c-0.1-0.1-0.1-0.1-0.2-0.2l-0.1-0.1v-0.1l0,0l0,0C265,217.5,265,217.4,265,217.4z M265.2,217.5
										c0,0,0-0.2,0-0.1l0,0V217.5L265.2,217.5l0.1,0.1c0.1,0.1,0.1,0.1,0.2,0.2c0.1,0.1,0.3,0.2,0.4,0.3c0.3,0.2,0.7,0.3,1.1,0.3
										c0.7,0,1.6,0,2.2-0.5c0.4-0.4-0.3-0.3-0.6-0.4c-0.4,0-0.8,0-1.2-0.1h-1.2h-0.6h-0.3L265.2,217.5
										C265.2,217.6,265.1,217.6,265.2,217.5z"/>
								</g>
								<g>
									<path class="st30" d="M265.7,212.3c0,0.4-0.5,0.4-1,0.3c-0.6,0-1-0.1-1-0.5s0.5-0.6,1.1-0.5
										C265.3,211.6,265.7,212,265.7,212.3z"/>
									<path class="st30" d="M261.9,210.6c0,0.1,1.6-0.5,2.1-0.5s2.4,0.3,2.6,0.1s0.3-0.8,0.3-0.8s-2.6-0.3-3.2-0.1
										C263.2,209.5,262.1,210.2,261.9,210.6z"/>
								</g>
								<g>
									<path class="st30" d="M270.8,212.8c0,0.4-0.5,0.4-1,0.3c-0.6,0-1-0.1-1-0.5s0.5-0.6,1.1-0.5
										C270.4,212.1,270.8,212.4,270.8,212.8z"/>
									<path class="st30" d="M271.5,211.4c0,0.1-0.7-0.8-1-0.9c-0.3-0.1-2,0.1-2.1-0.1c-0.1-0.2-0.1-0.9-0.1-0.9s2.2,0.2,2.6,0.4
										C271.2,210.1,271.5,211,271.5,211.4z"/>
								</g>
								<g>
									<path class="st45" d="M267.9,215.7c0,0-1.3,0-1.3-0.4s2.7-0.7,2.9-0.5C269.7,215.1,268.5,215.6,267.9,215.7z"/>
									<path class="st44" d="M268.1,210.4c0,0-0.4,1.6-0.2,2.2c0.2,0.6,1.4,1.9,1.4,2.2s-1.3,1-1.4,1s2-0.3,1.9-0.9
										s-1.6-2.2-1.6-2.6C268.1,212,268.1,210.4,268.1,210.4z"/>
								</g>
								<path class="st30" d="M258.9,213c0.4-0.3,1.1-2.6,0.4-4.9c-0.6-2,1-3.5,2.1-3.6c1.3-0.1,5.5,1,7.1,0.8
									c3.6-0.4,6.4-1.5,6.4-2.2s-2.7,0-2.7,0s4-1,3.7-4.4c0,0-3,0.2-5.7-0.7s-9.2-2-12.6,0.6c-2.3,1.7-3.9,7.1-0.9,9.9
									C258,209.8,258.1,213.6,258.9,213z"/>
							</g>
						</g>
						<path class="st46" d="M268.3,235c0,0-1.7,34.2-1.3,37.4s-0.2,15.6,7.6,18c0,0-3.5-17.8-3-28.6C272,251.1,268.3,235,268.3,235z
							"/>
					</g>
					<path class="st18" d="M265.8,227.2c0,0,3.4,10.7,3.2,24.7c-0.2,14-0.8,42.6,9.6,41.9c0,0-4.4-17.6-4.1-24s3.7-29.9,2.5-33.9
						C275.1,230.1,265.8,227.2,265.8,227.2z"/>
					<g>
						<path class="st18" d="M253.9,226.7c0,0,7,10.9,9.2,29.4c1.1,8.8-0.1,22.8-1.5,31.7c-1.5,10.3-21.6,10.2-22.9,7.6
							c-1.3-2.7,4.5-19.7,2.7-29.4c-1.8-9.7-2.9-25.5-0.7-30.7C242.9,230,253.9,226.7,253.9,226.7z"/>
						<path class="st47" d="M243.9,245.2c0,0,3.4,16.5,3,25.2c-0.4,8.7-3.2,26.4-3.2,26.4"/>
						<path class="st16" d="M241.4,236.5c-0.4,1-0.7,2.5-0.9,4.3c1.9,14.4,10,30.5,22.4,36.3c0.4-4.7,0.7-9.6,0.6-14
							c-8.3-8.3-14.7-19.1-19.6-29.7C242.8,234.3,241.9,235.4,241.4,236.5z"/>
					</g>
				</g>
				<g>
					<path class="st29" d="M290.1,274.1c0,0,6.2,1.4,6.9,2.3s2,3.8,1.9,4.4s-3.4,1.9-4.8,1.7c-1.4-0.2-2.9-1-2.9-1
						c0.2-0.7,0.1-1.4-0.6-1.6c-0.8-0.2-1.7,0.2-3.1,0.8C284.4,282.1,286.3,272.8,290.1,274.1z"/>
					<path class="st33" d="M240.4,244.1c1.7,9.2,13.5,23,18.5,27.3c4.4,3.8,26.3,10.2,27.3,10.3c2.2,0.5,5.1-7.6,3.4-8.6
						s-21.2-10-23.3-12.4c-2.1-2.3-9.8-23.2-15.3-27.9C245.4,228,238.6,233.7,240.4,244.1z"/>
				</g>
			</g>
		</g>
		<g>
			<g>
				<path class="st48" d="M596.1,229.3c9-12.9,18.2-10.1,21.6-4.7s0.9,13.5-6.1,20.2c-5.1,5.1-15.2,8.6-23.4,10.6
					c-5.7-6.1-12.2-14.7-13.6-21.8c-2.2-9.5,0.3-17.6,6.1-20.2C586.6,210.7,595.8,213.6,596.1,229.3z"/>
			</g>
			<g class="st49">
				<path class="st50" d="M617.7,224.6c-2.9-4.6-10.1-7.4-17.7,0c6.5-5.1,15.8-5.2,16.6,4.1c0.9,9.8-7,16.5-16.1,14.8
					c-11.9-2.2-9-12.2-14.6-17.1c-4.4-3.7-9.7,1.9-9.9,6.5c-0.1,2.1,0.1,4.2,0.5,6.2c2.7,5.7,7.4,11.7,11.7,16.3
					c8.2-1.9,18.3-5.5,23.4-10.6C618.6,238.1,621.1,230,617.7,224.6z"/>
			</g>
		</g>
		<g>
			<ellipse class="st22" cx="486.5" cy="382.7" rx="49.3" ry="2.8"/>
			<g>
				<g>
					<g>
						<g>
							<g>
								<g>
									<g>
										<path id="SVGID_00000011722560534312665460000011157147199550666911_" class="st18" d="M495.6,371.6c0,0,2,1.8,2.4,2.3
											c0.3,0.5,1.7,4.2,1.7,4.2c-0.3,0.5-1.2,1.3-2.1,1.4l-1.7-2.1c0,0-0.8,3.7-1.7,4.9c-1,1.5-7,3.2-7.9,2.7
											c0,0-1.1-2.2,0.8-3.4c3.4-2.2,3.5-6.8,3.5-6.8C490.1,372.1,493.1,370.1,495.6,371.6z"/>
									</g>
									<g>
										<g>
											<defs>
												<path id="SVGID_00000023989102406910289080000006860711448906456973_" d="M495.6,371.6c0,0,2,1.8,2.4,2.3
													c0.3,0.5,1.7,4.2,1.7,4.2c-0.3,0.5-1.2,1.3-2.1,1.4l-1.7-2.1c0,0-0.8,3.7-1.7,4.9c-1,1.5-7,3.2-7.9,2.7
													c0,0-1.1-2.2,0.8-3.4c3.4-2.2,3.5-6.8,3.5-6.8C490.1,372.1,493.1,370.1,495.6,371.6z"/>
											</defs>
											<clipPath id="SVGID_00000116929715860317632710000003731281990101827460_">
												<use xlink:href="#SVGID_00000023989102406910289080000006860711448906456973_"  style="overflow:visible;"/>
											</clipPath>
											<path style="clip-path:url(#SVGID_00000116929715860317632710000003731281990101827460_);fill:#DD4026;" d="M485.6,384.7
												c0.1-0.1,7.6-1.1,8.5-3.3c0.7-1.7,1.2-4.6,1.6-5c0.4-0.3,2.3-2.6,2.3-2.6l3,5.2l-11.3,9.5L485.6,384.7z"/>
										</g>
									</g>
								</g>
								<path class="st52" d="M489.2,379.7l1,0.2c0,0,0.7-1,0.7-1.9l-1-0.3c-0.2-0.1-0.4,0-0.4,0.2l-0.5,1.4
									C488.9,379.5,489,379.7,489.2,379.7z"/>
							</g>
							<path class="st29" d="M482.4,268.3c0-0.4-9.5,41.9-9.2,53.2c0.2,7.1,13.4,39.6,17.4,53.4c0.8,2.6,4.9-0.5,4.5-3.2
								c-1.5-13.2-1.5-20.1-7.3-48.7c-0.9-4.5,15.1-44.4,13.8-53.8C500.4,259.8,487.4,254.7,482.4,268.3z"/>
							<path class="st53" d="M501.7,269.2c-1.3-9.4-14.3-14.4-19.3-0.9c0-0.3-8.6,37.9-9.1,51.4c4.3-3.2,9.9-1.5,14.8,1
								C490,310.9,502.8,277.6,501.7,269.2z"/>
						</g>
						<g>
							<g>
								<g>
									<g>
										<path id="SVGID_00000142866166453179809360000010689765289474471075_" class="st18" d="M509.2,374.3c0,0,1.3,2.4,1.4,3
											s0,4.5,0,4.5c-0.5,0.4-1.6,0.8-2.4,0.6l-0.8-2.6c0,0-1.2,2.5-2.5,3.4c-1.5,1-6.8,2.2-7.7,1.8c0,0-1.2-2.4,0.7-3.4
											c4.9-2.5,5.4-6,5.4-6C503.9,372.9,507.4,372,509.2,374.3z"/>
									</g>
									<g>
										<g>
											<defs>
												<path id="SVGID_00000074425880757825979540000005120997973647215534_" d="M509.2,374.3c0,0,1.3,2.4,1.4,3s0,4.5,0,4.5
													c-0.5,0.4-1.6,0.8-2.4,0.6l-0.8-2.6c0,0-1.2,2.5-2.5,3.4c-1.5,1-6.8,2.2-7.7,1.8c0,0-1.2-2.4,0.7-3.4
													c4.9-2.5,5.4-6,5.4-6C503.9,372.9,507.4,372,509.2,374.3z"/>
											</defs>
											<clipPath id="SVGID_00000005973309563976104150000004296936081908870306_">
												<use xlink:href="#SVGID_00000074425880757825979540000005120997973647215534_"  style="overflow:visible;"/>
											</clipPath>
											<path style="clip-path:url(#SVGID_00000005973309563976104150000004296936081908870306_);fill:#DD4026;" d="M496.7,384.8
												c0.1,0,6.2-0.6,7.6-1.8s2.7-3.9,3.2-4.1s3.1-1.6,3.1-1.6l0.9,5.9l-13.9,4.9L496.7,384.8z"/>
										</g>
									</g>
								</g>
								<path class="st52" d="M500.6,380l0.9,0.6c0,0,1-0.7,1.3-1.5l-0.8-0.7c-0.1-0.1-0.4-0.1-0.5,0l-0.9,1.1
									C500.4,379.7,500.4,379.9,500.6,380z"/>
							</g>
							<path class="st29" d="M491.8,271c-0.1,3.7,0.5,42.9,3.9,53.6c2.1,6.7,6.6,38.8,8.1,49.7c0.5,4,4.9,4,5.2,0.2
								c1.2-14.2,5.8-34,0.6-51.3c-1.3-4.3,4.7-49.1,1-57.6C506.7,257.1,492,257.4,491.8,271z"/>
							<path class="st53" d="M509.3,320.3c0.1-11.1,4.5-47.1,1.2-54.7c-3.7-8.5-18.4-8.2-18.7,5.4c-0.1,3.4,0.4,36.9,3.1,50.5
								C499.1,319.1,504.5,318.9,509.3,320.3z"/>
						</g>
						<g>
							<path class="st18" d="M482.8,263.7l-0.4,3.9c0,0-6.9,17.5-9.9,45.9c7.4-2,21.2,4.8,41.8,1.9c0,0,8.1-36.3-6-52.5
								C494.2,246.6,483.6,255.1,482.8,263.7z"/>
							<path class="st16" d="M482.8,267.4c0,0-0.5,5.4,8.9,6.4s18.8-5.8,18.5-7.8C510,263.9,482.8,267.4,482.8,267.4z"/>
							<path class="st55" d="M506.1,264.7c0,0,10.8,17.9,4.1,49.9"/>
						</g>
					</g>
					<g>
						<g>
							<path class="st29" d="M444.5,253.4c-0.1,0-4-0.2-4.7-0.1c-0.6,0.2-2.2,0.9-2.7,1.2c-1.1,0.5,0,1.3,0.8,1.2
								c1.2-0.1,1.6-0.3,2.1-0.2c0.3,0,0.5,0.1,0.7,0.2c-0.4,0.4-2.2,1.6-3.6,2.1c-0.8,0.3-1.5,0.5-2.6,0.9
								c-0.5,0.2-0.4,0.8,0.2,0.9c0.4,0.1,1.8,0.1,3-0.4c0.5-0.2,1-0.4,1.4-0.6c0,0-1,0.6-1.5,0.9c-0.7,0.3-1.5,0.5-2.5,0.9
								c-0.5,0.2-0.4,0.7,0.2,0.8c0.2,0,0.4,0,0.8,0c-0.2,0.3-0.1,0.7,0.4,0.7c0.2,0,0.7,0,1.2-0.1c0.1,0.1,0.2,0.3,0.4,0.3
								c4,0,6.3-2.2,8.5-2.7C450.1,256,447.1,253.9,444.5,253.4z"/>
							<path class="st38" d="M490.7,225.1c-2.7-1.5-7.3-2-10.9,3.1c-3.6,5.2-5.2,17.4-9.1,21.5c-2.3,2.5-23.2,3.2-24.6,3.9
								c-1,0.5-0.4,5.1-0.1,6c0.7,1.8,23.2,2.8,29.4,0.3C481.5,257.5,496.5,228.4,490.7,225.1z"/>
						</g>
						<path class="st30" d="M482,202c0.2-1.9,0.2-5,2.4-7.8c2.3-2.7,11-5.5,15.6-2.3c5.7,3.9,3.8,7.6,10.9,10.4s4.9,6,2.9,9.2
							s-1.3,3.8,2,7.1c3.3,3.4,7.6,11.8,0,16.6c-7.6,4.8-24,1.7-30.6-4.7s1.2-10.5-0.6-14.3c-1.8-3.8-4-2.9-4-7
							C480.6,206.4,481.7,204.9,482,202z"/>
						<path class="st8" d="M496.2,220.6c0,0-15,2.5-15.5,7.1c-0.2,1.9,2.4,5.8,1.7,7.7c-1,2.9-2.5,4.5,0.3,11.3
							c2.3,5.5-1.7,16.9-1.6,18.2c0.5,5.1,8.5,6,11.8,5.9c4.7-0.1,18.2-3.1,18.2-6.1c0-2.6-6.2-8.1-6.9-12.5
							c-0.6-4.4,10.8-22,8.6-25.8C508.5,219,496.2,220.6,496.2,220.6z"/>
						<g>
							<path class="st29" d="M510.6,267.7c-0.1,0-3.9,1-4.4,1.4s-1.8,1.6-2.2,1.9c-0.9,0.8,0.4,1.3,1.1,0.9c1.1-0.5,1.4-0.8,1.9-0.9
								c0.3,0,0.5,0,0.7,0c-0.3,0.5-1.6,2.2-2.7,3.1c-0.6,0.5-1.2,0.9-2.2,1.6c-0.4,0.3-0.1,0.9,0.4,0.8c0.4-0.1,1.7-0.5,2.7-1.3
								c0.4-0.3,0.8-0.7,1.2-1c0,0-0.8,0.9-1.2,1.3c-0.6,0.5-1.2,0.9-2.1,1.6c-0.4,0.3-0.1,0.8,0.5,0.7c0.2,0,0.4-0.1,0.8-0.2
								c-0.1,0.3,0.1,0.6,0.6,0.6c0.2,0,0.6-0.2,1.1-0.5c0.1,0.1,0.3,0.2,0.5,0.1c2.4-0.5,6.4-3.9,7.3-5.1
								C516.7,268.5,513.2,267.4,510.6,267.7z"/>
							<path class="st8" d="M507.3,222.8c-2.4,2-4.6,6.1-1.1,11.3c3.5,5.3,13.4,10.8,15.8,15.9c1.4,3-12,16.1-12,17.7
								c0,1.7,2.5,5.7,3.5,6.2c1.7,0.8,20.6-17.4,20.6-24C534.1,243.2,512.5,218.6,507.3,222.8z"/>
						</g>
						<path class="st29" d="M498.5,209.1c0,0,0.3,3.9,1.5,6.9s2.4,4,3.8,5.2c1.4,1.3-5.8,9-12.2,10.9c0,0-4.7-5.7-2.5-8.8
							c2.1-3.2,3.8-3.4,3.1-7.7c-0.7-3.7-1.1-5.7-1.1-5.7L498.5,209.1z"/>
						<g>
							<g>
								<path class="st4" d="M488.6,211c0,1.8-0.7,3.3-1.7,3.3s-1.7-1.5-1.7-3.3c0-1.2,0.3-2.3,0.9-2.9c0.2-0.2,0-0.4-0.2-0.2
									c-0.5,0.6-0.9,1.7-0.9,3c0,2,0.8,3.5,1.9,3.5s1.9-1.6,1.9-3.5c0-1-0.2-1.8-0.5-2.5c0,0-0.1,0.1-0.2,0.2
									C488.4,209.3,488.6,210.1,488.6,211z"/>
							</g>
							<g>
								<path class="st43" d="M498.5,209.1c0,0-1,7.9-8.5,7.3c-3.7-0.3-5.6-7.9-4.2-9.9c0,0-0.7-3.9,0-7c0.7-3.2,6.9-4.8,12-3.3
									c0,0,1.5,1.4,0.9,7.6c0,0,0.9-1.1,2.4-0.3c1.1,0.6,1.2,2.1,0.9,3.4C501.6,208.6,499.9,210,498.5,209.1z"/>
								<path class="st44" d="M499,208.5l0.6-1.5l-0.9-0.4c0,0,0.6-2.8,2.2-1.7C502,205.7,500.6,209,499,208.5z"/>
								<g>
									<path class="st4" d="M501.4,211c0,1.8-0.7,3.3-1.7,3.3s-1.7-1.5-1.7-3.3c0-1.2,0.3-2.3,0.9-2.9c0.2-0.2,0-0.4-0.2-0.2
										c-0.5,0.6-0.9,1.7-0.9,3c0,2,0.8,3.5,1.9,3.5s1.9-1.6,1.9-3.5c0-1-0.2-1.8-0.5-2.5c0,0-0.1,0.1-0.2,0.2
										C501.2,209.3,501.4,210.1,501.4,211z"/>
								</g>
							</g>
							<g>
								<g>
									<path class="st18" d="M488.1,211.5c0,0,0.5-1.2,4.4-0.8C492,212.7,488.4,213.7,488.1,211.5z"/>
									<g>
										<path class="st44" d="M488.1,211.5c0,0,2.4,0,4.4-0.8"/>
										<path class="st44" d="M488.1,211.5c1.5-0.2,2.9-0.4,4.4-0.8c-0.7,0.4-1.4,0.6-2.1,0.7
											C489.6,211.5,488.8,211.6,488.1,211.5z"/>
									</g>
								</g>
								<g>
									<path class="st30" d="M485.9,206.4c0,0.4,0.5,0.4,1,0.3c0.6,0,1-0.1,1-0.5s-0.5-0.6-1.1-0.5
										C486.3,205.8,485.8,206.1,485.9,206.4z"/>
									<path class="st30" d="M484.7,205c0,0.1,1.3-1.1,1.7-1.1c0.4,0,1.7,0.5,1.8,0.3s0.3-0.6,0.3-0.6s-1.9-0.3-2.2-0.2
										C485.8,203.5,484.9,204.5,484.7,205z"/>
								</g>
								<g>
									<path class="st30" d="M491,206c0,0.4,0.5,0.4,1,0.3s1-0.1,1-0.5s-0.5-0.6-1.1-0.5C491.4,205.3,491,205.7,491,206z"/>
									<path class="st30" d="M494.3,203.8c0,0-1.7-0.7-2.2-0.6c-0.4,0.1-1.9,0.8-2,0.7s-0.4-0.5-0.4-0.5s2.1-0.7,2.6-0.7
										S494.1,203.4,494.3,203.8z"/>
								</g>
								<g>
									<path class="st45" d="M488.8,209.4c0,0,1.3,0,1.3-0.4s-2.7-0.7-2.9-0.5C487,208.8,488.2,209.3,488.8,209.4z"/>
									<path class="st44" d="M488.5,204c0,0,0.4,1.6,0.2,2.2c-0.2,0.6-1.4,1.9-1.4,2.2s1.3,1,1.4,1s-2-0.3-1.9-0.9
										s1.6-2.2,1.6-2.6C488.6,205.7,488.5,204,488.5,204z"/>
								</g>
							</g>
						</g>
						<path class="st30" d="M496.2,196.8c-6.2,0.7-8.9,6.5-13.5,6.5c-2.8-4.9,5.8-17.2,15.9-7.6c4.6,4.4,0.5,7.8,0.5,7.8l-1,3.6
							c0,0,0.1-2.7-0.9-3.7C494.4,200.3,496.2,196.8,496.2,196.8z"/>
					</g>
				</g>
			</g>
		</g>
		<g>
			<path class="st56" d="M455.8,164l-63.5-15.6l0,0l-8-2c-3.1-0.8-6.3,1.1-7.1,4.3l-6.3,25.6l0,0l-0.4,1.5l-2.9,11.7
				c-0.8,3.1,1.1,6.3,4.3,7.1l70.4,17.3c3.1,0.8,6.3-1.1,7.1-4.3l0.8-3.4l0,0l2.4-9.8l0,0l3.5-14.2l0,0l3.1-12.5
				C459.8,167.2,458.3,164.7,455.8,164z"/>
			<g>
				<path class="st6" d="M441.1,211.6l-70.4-17.3c-3.1-0.8-5-3.9-4.3-7.1l9.6-38.8c0.8-3.1,3.9-5,7.1-4.3l70.4,17.3
					c3.1,0.8,5,3.9,4.3,7.1l-9.6,38.8C447.4,210.5,444.3,212.4,441.1,211.6z"/>
				<path class="st5" d="M380.8,158.1c-2.4,6.4-1.6,15.2,4.8,18.4c22.9,13.6,47.3,12.4,69.3,3.4l3.1-12.5c0.6-2.5-0.9-5-3.4-5.6
					l-63.5-15.6C386.3,148.8,382.9,153.4,380.8,158.1z"/>
				
					<rect x="404.3" y="146.9" transform="matrix(0.239 -0.971 0.971 0.239 128.0293 541.3081)" class="st8" width="10.1" height="84.2"/>
				<path class="st8" d="M405.1,160.5l-24.7-6.1c-1.3-0.3-2-1.6-1.7-2.8l0.1-0.3c0.3-1.3,1.6-2,2.8-1.7l24.7,6.1
					c1.3,0.3,2,1.6,1.7,2.8l-0.1,0.3C407.6,160.1,406.4,160.8,405.1,160.5z"/>
				<path class="st8" d="M426.8,171l-48.7-12c-0.6-0.2-1-0.8-0.9-1.4v-0.2c0.2-0.6,0.8-1,1.4-0.9l48.7,12c0.6,0.2,1,0.8,0.9,1.4v0.2
					C428.1,170.8,427.4,171.2,426.8,171z"/>
				<g>
					<path class="st4" d="M416.8,180.3l-1.6-0.4c-0.9-0.2-1.4-1.1-1.2-2l0.1-0.2c0.2-0.9,1.1-1.4,2-1.2l1.6,0.4
						c0.9,0.2,1.4,1.1,1.2,2l-0.1,0.2C418.6,180,417.7,180.5,416.8,180.3z"/>
					<path class="st4" d="M422.9,181.8l-1.6-0.4c-0.9-0.2-1.4-1.1-1.2-2l0.1-0.2c0.2-0.9,1.1-1.4,2-1.2l1.6,0.4
						c0.9,0.2,1.4,1.1,1.2,2l-0.1,0.2C424.7,181.5,423.8,182,422.9,181.8z"/>
					<path class="st4" d="M429,183.3l-1.6-0.4c-0.9-0.2-1.4-1.1-1.2-2l0.1-0.2c0.2-0.9,1.1-1.4,2-1.2l1.6,0.4c0.9,0.2,1.4,1.1,1.2,2
						l-0.1,0.2C430.8,183,429.9,183.5,429,183.3z"/>
				</g>
				<g>
					<path class="st18" d="M443.4,165.3c-0.7-1.3-1.9-2.2-3.4-2.6c-2.9-0.7-5.9,1.1-6.6,4s1.1,5.9,4,6.6c1.5,0.4,3,0.1,4.3-0.7
						c-0.7-1.2-0.9-2.6-0.6-4C441.3,167.2,442.2,166,443.4,165.3z"/>
					<path class="st18" d="M447.6,164.6c-1.5-0.4-3-0.1-4.3,0.7c0.7,1.2,0.9,2.6,0.6,4s-1.2,2.6-2.4,3.3c0.7,1.3,1.9,2.2,3.4,2.6
						c2.9,0.7,5.9-1.1,6.6-4S450.6,165.3,447.6,164.6z"/>
				</g>
			</g>
		</g>
	</g>
</g>
</svg>
